<?xml version="1.0" encoding="UTF-8" standalone="no"?>
<svg id="svg4759" xmlns:rdf="http://www.w3.org/1999/02/22-rdf-syntax-ns#" xmlns="http://www.w3.org/2000/svg" version="1.1" xmlns:cc="http://creativecommons.org/ns#" xmlns:dc="http://purl.org/dc/elements/1.1/" viewBox="0 0 320 280">
<g id="layer1" transform="translate(0 -772.36)">
<path class="troll" id="path5437" fill="#666" d="m101.48 1052.1c-2.4062-0.272-11.817-1.1539-20.913-1.9597-21.394-1.8954-20.814-1.3083-20.508-20.787 0.15378-9.7696-0.57342-19.376-2.1742-28.72-2.3236-13.564-2.5792-14.208-7.5301-18.964-2.8187-2.7082-5.1952-5.5306-5.2812-6.272-0.27889-2.406-0.4951-3.2019-1.2151-4.473-1.5644-2.7618-1.2814-20.294 0.35549-22.02 1.6067-1.6942 2.3099-9.8705 0.95502-11.105-0.37722-0.34375-1.401-3.1562-2.275-6.25-1.2574-4.4508-3.7521-7.7125-11.951-15.625-5.6988-5.5-10.805-11.406-11.347-13.125-0.54228-1.7188-1.0532-6.5886-1.1354-10.822-0.14562-7.5027-0.31623-7.8733-6.7626-14.689-3.6373-3.8459-6.2958-7.5062-5.9079-8.1339 0.38796-0.62772 0.03-1.3664-0.79549-1.6416-1.0891-0.36303-1.56-7.1657-1.7166-24.794-0.11864-13.362-0.76417-25.981-1.4345-28.044-2.2995-7.0751-1.9346-18.914 0.77161-25.032 3.6188-8.1809 13.139-16.962 16.284-15.018 0.61457 0.37983 1.3536-0.016 1.6423-0.87969 0.39671-1.1867 6.3145-1.5703 24.226-1.5703h23.702l3.4087 3.4091c1.8748 1.875 3.3596 3.5625 3.2996 3.75s0.16983 1.1847 0.51074 2.2159c2.0836 6.3028 5.8268 25.605 5.2546 27.096-0.37956 0.98913-0.13402 1.4434 0.55126 1.0199 2.1782-1.3462 1.9543 45.39-0.25748 53.759-0.72678 2.75-1.4891 7.3504-1.694 10.223-0.57123 8.0086-4.0046 20.131-8.2528 29.138-2.1113 4.4764-4.1979 8.4201-4.6369 8.7639-0.95161 0.74514-1.2826 2.7244-2.4776 14.816-1.1802 11.942-0.29306 13.277 7.6403 11.499 3.2423-0.72662 6.3212-1.2304 6.8421-1.1195 0.52085 0.11087 1.7908-0.119 2.822-0.51079 1.0312-0.39181 5.5312-1.342 10-2.1116 4.4688-0.76955 10.797-2.0006 14.062-2.7357l5.9375-1.3366v-11.125-11.125h-5.1692c-10.47 0-13.935-9.2126-14.105-37.5l-0.10133-16.875 3.3525-0.38733c2.7141-0.31357 4.8037 1.1145 10.974 7.5 4.1919 4.338 7.4935 7.3248 7.3369 6.6373-0.40178-1.7639 1.5448-13.495 2.489-15 0.43128-0.6875 0.96516-2.5672 1.1864-4.1772 0.66498-4.8388 10.105-25.706 12.389-27.385 1.1688-0.85938 1.6981-1.5625 1.1762-1.5625-1.7332 0 4.4993-8.0386 10.969-14.147 3.5077-3.312 5.5876-5.6158 4.622-5.1194-1.1523 0.59238-1.4491 0.4066-0.86372-0.5406 0.49055-0.79372 1.6745-1.4431 2.631-1.4431 0.95651 0 2.3125-0.98438 3.0132-2.1875 0.70076-1.2031 1.2912-1.7434 1.3121-1.2007 0.0209 0.54273 0.74113 0.39168 1.6005-0.33567 6.1348-5.1923 8.2844-6.5263 14.529-9.0166 5.8885-2.3482 9.4747-2.8112 22.033-2.8446 8.25-0.022 16.125 0.46645 17.5 1.0854 1.375 0.61891 3.5269 1.325 4.782 1.5691 3.4086 0.66288 7.093 2.8574 7.093 4.2246 0 0.66331 0.65201 1.206 1.4489 1.206 2.6779 0 23.551 17.263 23.551 19.478 0 0.33405 2.8125 4.7344 6.25 9.7787 3.4375 5.0442 6.25 10.088 6.25 11.207 0 1.1199 0.5625 2.0362 1.25 2.0362s1.25 1.125 1.25 2.5 0.4894 2.5 1.0876 2.5c1.0038 0 4.0658 9.1158 4.5894 13.663 0.12425 1.0793 0.62083 2.8824 1.1034 4.007 0.4826 1.1245 0.98257 4.0751 1.111 6.5569 0.12849 2.4818 0.34866 4.5148 0.48929 4.5179 0.87678 0.0192 6.2442-6.2029 5.7645-6.6825-1.2405-1.2405 8.551-6.6827 11.808-6.5628l3.4219 0.12593-0.10133 16.875c-0.16984 28.287-3.6349 37.5-14.105 37.5h-5.1692v9.2864 9.2864l7.0424 1.462c5.6254 1.1678 8.0149 2.4842 11.875 6.5421l4.8326 5.0801-0.0191 33.234c-0.0111 19.298-0.52728 34.02-1.2309 35.109-0.66645 1.0312-1.2203 1.4442-1.2309 0.9178-0.01-0.5265-1.566 0.768-3.4566 2.8765-2.8441 3.172-4.6782 3.9609-10.625 4.5696-7.0872 0.7256-7.1875 0.7913-7.1875 4.7066 0 3.8888 0.16815 4.0043 8.1365 5.5881 4.4751 0.8895 8.4514 2.1269 8.8364 2.7497 0.38494 0.6229 1.2235 0.8088 1.8635 0.4133 0.63999-0.3955 1.1636-0.09 1.1636 0.6784 0 0.7686 0.49417 1.0921 1.0982 0.7188 0.60399-0.3733 2.7134 0.1215 4.6875 1.0996 5.6045 2.7767 10.999 4.8548 12.027 4.6334 0.51562-0.111 0.9375 0.3939 0.9375 1.122 0 0.728 0.4432 1.0498 0.98489 0.715 0.54168-0.3347 3.2136 1.2758 5.9375 3.579 6.2294 5.2672 5.159 6.5287-6.2974 7.4216-4.8125 0.3751-16.344 1.3115-25.625 2.0809-11.216 0.9298-29.031 1.0799-53.125 0.4476-19.938-0.5233-37.656-0.935-39.375-0.915-1.7188 0.02-21.688 0.3415-44.375 0.7144-22.688 0.373-43.219 0.4555-45.625 0.1835zm77.188-6.3135 9.0625-0.7006v-4.3919c0-17.794-41.896-20.45-91.25-5.7827-5.8438 1.7366-12.834 4.2842-15.534 5.6613-4.0683 2.0749-4.5586 2.7001-2.8618 3.6497 4.9841 2.7892 71.383 3.8218 100.58 1.5642zm97.679 0.7178c14.708-0.7045 27.645-1.7901 28.75-2.4124 2.8863-1.6257-8.2043-6.4519-25.755-11.208-19.697-5.3372-29.833-6.7741-48.486-6.8735-22.921-0.1221-32.864 3.4115-35.504 12.617-1.9202 6.6953-1.0174 7.0121 22.581 7.924 11.92 0.4606 23.923 0.9266 26.673 1.0355 2.75 0.109 17.034-0.3784 31.741-1.0829zm-191.12-13.3c0-0.8632-13.555-44.739-14.978-48.482-1.2209-3.2113-4.2048-4.0603-7.3232-2.0838-1.394 0.88352-1.3414 3.1644 0.3125 13.568 1.0935 6.878 1.9882 19.845 1.9882 28.815 0 11.363 0.44457 16.457 1.4659 16.798 1.4413 0.4804 18.534-7.4642 18.534-8.6146zm11.738-4.3878c-0.28795-0.466 3.0001-1.6295 7.3069-2.5856l7.8304-1.7385 0.33781-25.837 0.33782-25.837-2.8378 1.1856c-1.5608 0.6521-9.0253 2.3771-16.588 3.8333-19.144 3.6864-19.856 3.8809-18.122 4.9526 0.81997 0.50676 1.5765 2.4007 1.6813 4.2088 0.10474 1.8081 0.5497 3.2878 0.98882 3.2883 0.43911 0.00049 1.1926 2.1103 1.6744 4.6884 0.48179 2.5781 1.3403 5.25 1.9078 5.9375 0.56752 0.6875 1.0434 1.5312 1.0575 1.875 0.0141 0.3437 0.30344 1.4687 0.64301 2.5 0.33957 1.0312 2.1221 6.9375 3.9612 13.125 3.178 10.692 3.5173 11.25 6.8439 11.25 1.9251 0 3.2646-0.3812 2.9766-0.8471zm179.57-18.538c8.5665-1.6246 11.195-4.028 11.195-10.236v-4.8589l-9.6875 0.36509-9.6875 0.36507-0.38726 6.0912c-0.35756 5.6238 0.22785 9.5338 1.4274 9.5338 0.27149 0 3.4844-0.5672 7.1398-1.2604zm-47.555-3.181c12.572-1.5398 32.357-5.8 35.255-7.5915 0.54698-0.33805 0.99452-14.925 0.99452-32.416v-31.801l-2.8125 0.12c-1.5469 0.066-5.527 0.76911-8.8448 1.5625-5.8478 1.3984-6.1028 1.6528-8.3396 8.3175-8.2392 24.549-57.273 34.81-89 18.624-7.8415-4.0004-15.615-12.552-17.601-19.362l-1.7314-5.9379-9.273-2.2344c-5.1002-1.2289-9.4137-2.258-9.5855-2.2869-0.17188-0.0289-0.3125 14.832-0.3125 33.024v33.077l5 1.2982c11.611 3.0147 14.873 3.7022 24.375 5.1383 24.174 3.6533 54.456 3.8266 81.875 0.4685zm58.75-41.184c0-23.672-0.18437-25.809-2.4188-28.044-3.9467-3.9467-15.331-6.4605-17.004-3.7545-0.45096 0.72967-0.40999 13.948 0.0911 29.375l0.911 28.048h9.2102 9.2102v-25.625zm-221.76 11.58c0.17054-0.17055-0.77622-5.3712-2.1039-11.557-1.3277-6.1859-2.762-13.075-3.1874-15.31-0.42534-2.2344-1.4029-4.0548-2.1723-4.0454-10.352 0.12632-13.956 12.47-7.6168 26.088l3.1327 6.7297 5.8188-0.79755c3.2003-0.43865 5.9583-0.93709 6.1288-1.1076zm22.026-4.6033c9.1364-2.0208 18.721-4.0521 21.299-4.5141l4.6875-0.83997v-16.135c0-16.093-0.007-16.133-2.8125-15.481-6.7888 1.578-21.318 4.6284-33.437 7.0202-7.2188 1.4246-13.312 2.7756-13.541 3.0023-0.8879 0.87909 5.7313 30.621 6.8149 30.621 0.2079 0 7.8532-1.6534 16.99-3.6742zm128.49-8.7856c11.237-3.7975 18.207-8.4266 22.646-15.04 2.7514-4.0993 3.6508-6.7269 3.3157-9.6875-0.32843-2.9024 0.0504-4.0625 1.3264-4.0625 0.98237 0 6.2132-1.2132 11.624-2.6961l9.8379-2.6961v-14.139-14.139l6.5191 0.27233c6.3803 0.26653 6.5661 0.17394 8.7291-4.35 3.6978-7.7338 6.2943-37.253 3.2769-37.253-0.8112 0-5.0249 3.6926-9.3638 8.2057s-8.4564 7.8549-9.1501 7.4262c-0.69363-0.42869-1.2612-2.6041-1.2612-4.8342 0-4.7108-4.8258-23.599-8.3476-32.673-11.067-28.513-35.434-49.686-59.255-51.487-11.261-0.85164-19.964 0.83587-30.005 5.8173-14.306 7.0979-26.896 20.41-35.51 37.544-5.3402 10.623-7.3038 16.628-10.629 32.501-1.5121 7.2188-2.9918 13.376-3.2883 13.682-0.29647 0.30656-4.719-3.5946-9.8278-8.6693-7.6532-7.6021-9.4366-8.8413-10.129-7.0378-2.05 5.3421 2.5533 36.285 6.0223 40.483 0.90883 1.0996 3.1518 1.3384 7.3458 0.78208l6.0375-0.8009 0.3549 14.138 0.35489 14.138 12.085 3.1526 12.085 3.1526 0.82439 5.4974c1.5945 10.633 14.776 20.66 32.506 24.728 10.893 2.4991 31.548 1.5346 41.875-1.9553zm-47.69-15.941c3.0607-1.2481 4.1134-2.806 5.7878-8.5659 2.0196-6.9471 2.0801-7.0101 4.5685-4.7582 1.387 1.2552 3.4445 3.8442 4.5723 5.7534 1.8304 3.0986 2.7597 3.4712 8.6592 3.4712 6.124 0 6.9401-0.36674 11.126-5 2.4845-2.75 4.9623-5 5.5062-5 0.54396 0 1.721 2.8561 2.6157 6.3469 1.0888 4.2484 2.5507 6.8315 4.4215 7.8125 2.2158 1.162-2.7772 1.4656-24.102 1.4656-22.38 0-26.268-0.25619-23.155-1.5255zm11.284-2.3808c4.7407-0.94814 4.9376-2.8141 0.71541-6.7806-2.6906-2.5276-3.3735-2.7088-4.3559-1.1554-0.64076 1.0132-1.1736 2.4994-1.1842 3.3025-0.01 0.80315-0.36057 2.35-0.77788 3.4375-0.83952 2.1878-0.12212 2.3409 5.6025 1.196zm30.766-2.0312c-0.44462-1.5469-1.0829-3.7969-1.4185-5-0.84838-3.042-2.3286-2.736-5.3509 1.1061-3.3988 4.3208-3.2726 5.1871 0.84677 5.8111 6.7594 1.024 6.7672 1.0214 5.9226-1.9172zm-55.61-64.274c-13.19-5.6768-18.587-20.588-12.549-34.673l2.4505-5.7169 9.737 0.92574c12.624 1.2002 60.904 1.196 72.398-0.006l8.9109-0.93214 2.6516 6.1639c4.3966 10.22 2.8688 21.242-3.9705 28.647-3.3977 3.6783-12.356 7.6789-17.196 7.6789-8.3951 0-20.431-7.9407-25.646-16.92-1.2054-2.0755-1.7342-1.731-5.3017 3.4541-2.8715 4.1736-6.0859 6.8206-11.673 9.6126-8.4413 4.2182-13.14 4.6371-19.811 1.7661zm17.895-4.3131c4.6223-2.3701 10.96-9.0106 12.828-13.44 0.9775-2.3183 1.7773-6.6206 1.7773-9.5606v-5.3455l-8.4375-0.7293c-4.6406-0.40112-13.846-1.0819-20.455-1.5128l-12.018-0.78349-1.4197 4.0725c-3.4744 9.9666-0.47605 20.732 7.2027 25.862 4.7351 3.1633 15.664 3.9287 20.522 1.4374zm-5.373-14.199c-1.2631-1.522-1.3164-2.6838-0.2323-5.0632 2.5383-5.571 9.6253-2.8107 8.744 3.4057-0.50249 3.5447-6.0491 4.6248-8.5117 1.6575zm59.044 14.18c4.3529-2.3296 6.9814-5.2907 9.0133-10.154 2.258-5.4042 2.4081-9.7472 0.56604-16.381l-1.3408-4.8288-12.09 0.78888c-32.619 2.1284-31.264 1.5116-28.864 13.147 1.1396 5.5252 2.4773 7.9639 6.4492 11.757 2.7562 2.6319 6.207 5.2681 7.6684 5.8583 3.8935 1.5723 15.529 1.4549 18.598-0.18762zm-20.733-13.164c-1.4855-1.4855-0.88219-6.32 0.98167-7.8669 4.0868-3.3918 10.277 2.7984 6.8852 6.8852-1.5469 1.8639-6.3814 2.4672-7.8669 0.98169zm-150.21 81.37c2.3024-0.61862 2.5-1.729 2.5-14.045 0-12.611 0.23958-13.873 4.2025-22.124 2.3114-4.8125 5.5735-12.352 7.2492-16.755 5.8242-15.303 8.9306-48.962 6.7599-73.245-1.3088-14.641-6.2137-36.002-8.8787-38.667-0.83409-0.83415-8.9099-1.3329-21.583-1.3329-19.247 0-20.597 0.1625-27.248 3.2816-6.0207 2.8233-7.4609 4.2105-10.312 9.9329-4.0137 8.0545-4.1787 13.717-0.75902 26.058 2.1749 7.8484 2.4293 11.215 1.7085 22.607-0.46585 7.3621-0.43933 16.648 0.0589 20.636 0.80903 6.4753 1.5942 7.9786 7.3413 14.055l6.4354 6.8045 0.80824 11.43c0.75613 10.693 1.0356 11.591 4.3343 13.937 13.202 9.3884 19.318 18.04 21.923 31.012 0.78654 3.9165 1.7743 7.1132 2.195 7.1038 0.42071-0.009 1.8899-0.31935 3.2649-0.68882z"/>
</g>
</svg>
