<?xml version="1.0" encoding="UTF-8" standalone="no"?>
<svg id="svg5793" xmlns:rdf="http://www.w3.org/1999/02/22-rdf-syntax-ns#" xmlns="http://www.w3.org/2000/svg" version="1.1" xmlns:cc="http://creativecommons.org/ns#" xmlns:dc="http://purl.org/dc/elements/1.1/" viewBox="0 0 200 200">
<g id="layer1" transform="translate(0 -852.36)">
<g id="g5689" transform="matrix(.25 0 0 -.25 -111.21 1151.9)">
<g id="g178" transform="translate(604.91 902.79)">
<path id="path180" stroke-linejoin="round" d="m0 0c2.971-5.146 70.684 48.355 73.952 42.695 3.303-5.72-67.147-33.699-63.411-40.17 0.651-1.129 67.81 43.233 69.577 40.171 2.549-4.414-64.284-38.847-63.65-39.945 3.289-5.696 68.428 41.263 69.188 39.946 2.115-3.662-63.579-38.388-62.679-39.946 2.887-5.001 68.76 40.688 69.188 39.946 1.472-2.548-64.246-38.098-63.18-39.946 1.246-2.158 68.28 41.524 69.191 39.946 2.404-4.166-65.108-35.882-62.761-39.947 0.224-0.388 66.545 44.537 69.195 39.948 1.85-3.216-64.899-37.3-63.37-39.947 1.089-1.887 66.14 45.232 69.19 39.948 0.71-1.23-62.962-39.418-62.656-39.949 1.203-2.082 66.216 45.1 69.196 39.949 3.09-5.347-65.612-37.039-63.932-39.949 0.891-1.542 67.092 43.59 69.192 39.949 1.95-3.365-64.427-37.263-62.877-39.948 2.515-4.356 68.227 41.618 69.197 39.949 1.23-2.126-66.029-36.273-63.906-39.95 1.22-2.113 65.946 45.57 69.196 39.95 1.58-2.739-64.463-38.326-63.526-39.949 3.976-6.886 65.776 45.874 69.196 39.95 1.94-3.364-63.113-39.388-62.788-39.95 2.244-3.886 68.578 41.017 69.198 39.951 3.72-6.442-66.565-34.519-63.429-39.951 1.497-2.593 68.999 40.3 69.199 39.951 3.08-5.341-65.025-36.56-63.067-39.952 3.182-5.51 67.597 42.726 69.197 39.952 0.76-1.317-66.282-36.351-64.204-39.952 2.604-4.509 67.364 43.135 69.204 39.953 0.44-0.77-63.406-38.949-62.827-39.953 3.891-6.739 68.952 40.385 69.201 39.953 3.678-6.37-66.391-33.567-62.705-39.953 2.925-5.065 68.454 41.249 69.202 39.954 1.023-1.771-64.668-36.361-62.594-39.953 3.137-5.434 65.648 46.11 69.203 39.954 0.291-0.505-66.521-35.381-63.881-39.954 2.274-3.939 67.07 43.649 69.204 39.954 1.018-1.764-67.394-34.518-64.256-39.954 3.821-6.62 65.456 46.444 69.203 39.954 0.716-1.239-66.791-33.627-63.137-39.954 3.494-6.052 66.846 44.04 69.205 39.955 3.52-6.098-65.82-36.235-63.672-39.956 3.464-6 68.631 40.952 69.206 39.957 0.89-1.539-65.24-37.534-63.84-39.957 3.112-5.391 67.067 43.662 69.206 39.957 3.474-6.018-64.419-38.068-63.329-39.957 3.954-6.848 68.678 40.874 69.207 39.957 2.984-5.169-66.08-35.35-63.42-39.957 3.859-6.684 67.622 42.705 69.208 39.958 0.94-1.626-62.82-39.638-62.63-39.958 1.8-3.126 65.59 46.215 69.21 39.958 0.77-1.335-63.71-39.302-63.33-39.957 0.78-1.351 68.31 41.515 69.21 39.958 1.75-3.029-65.61-37.082-63.95-39.959 1.984-3.436 66.647 44.401 69.212 39.959 0.142-0.246-67.142-33.752-63.558-39.958 0.197-0.342 68.964 40.388 69.211 39.959 1.076-1.863-66.506-36.125-64.292-39.96 2.715-4.703 67.303 43.266 69.212 39.96 0.999-1.73-66.907-35.708-64.452-39.96 2.128-3.686 66.861 44.033 69.213 39.961 2.91-5.039-64.85-38.604-64.06-39.961 0.63-1.103 69.03 40.273 69.21 39.961 0.9-1.555-67.83-34.251-64.54-39.961 0.9-1.561 66.129 45.304 69.214 39.961 1.099-1.903-64.788-37.434-63.329-39.96 1.084-1.877 67.606 42.75 69.216 39.962 0.258-0.449-67.495-34.844-64.54-39.962 1.622-2.809 68.707 40.845 69.216 39.962 0.171-0.297-66.014-35.917-63.679-39.962 2.5-4.329 65.98 45.567 69.217 39.962 2.453-4.249-66.324-34.725-63.3-39.962 1.08-1.872 68.478 41.243 69.217 39.963 3.293-5.704-65.85-35.37-63.198-39.963 0.384-0.663 68.241 41.656 69.219 39.964 2.102-3.643-63.104-39.623-62.907-39.964 2.031-3.519 67.993 42.087 69.22 39.964 1.468-2.543-65.624-38.049-64.518-39.965 0.524-0.907 65.758 45.962 69.221 39.965 3.538-6.129-65.308-35.423-62.685-39.965 1.421-2.461 69.1 40.174 69.22 39.965 2.159-3.74-64.97-36.506-62.974-39.965 2.946-5.103 68.516 41.189 69.222 39.966 2.559-4.433-66.7-35.974-64.396-39.966 1.143-1.979 67.485 42.977 69.223 39.967 3.265-5.654-65.873-36.973-64.145-39.966 0.317-0.548 65.777 45.936 69.224 39.966 1.872-3.242-66.004-34.889-63.073-39.966 0.097-0.167 66.859 44.064 69.224 39.967 1.183-2.048-65.552-36.519-63.562-39.967 3.348-5.798 67.194 43.486 69.226 39.967 3.078-5.332-64.638-36.755-62.784-39.967 0.015-0.026 66.171 45.259 69.226 39.968 0.81-1.405-63.608-38.282-62.635-39.968 0.387-0.669 69.225 39.974 69.228 39.968 1.398-2.423-66.75-34.118-63.373-39.969 0.305-0.527 66.758 44.247 69.228 39.969 2.41-4.174-65.867-36.285-63.741-39.968 2.012-3.483 65.995 45.571 69.229 39.969 3.124-5.411-66.584-35.991-64.286-39.97 2.467-4.272 68.878 40.578 69.229 39.971 3.172-5.494-64.113-37.349-62.6-39.971 2.209-3.824 59.773 41.775 62.919 36.327 0.84-1.456-58.725-34.655-57.761-36.327 1.756-3.04 55.51 37.252 57.763 33.35 0.445-0.772-54.393-29.172-51.982-33.349 1.656-2.868 49.609 34.128 51.985 30.014 0.345-0.598-48.927-26.8-47.072-30.014 0.956-1.656 45.406 30.067 47.074 27.178 0.657-1.138-42.499-23.606-40.437-27.178 1.055-1.827 40.09 23.952 40.44 23.348 0.078-0.136-37.253-19.836-35.226-23.349 0.576-0.996 34.225 22.076 35.228 20.34 1.661-2.877-29.786-18.584-28.773-20.34 1.468-2.541 27.774 18.35 28.776 16.614 0.016-0.028-23.843-15.6-23.258-16.614 0.534-0.924 22.718 14.369 23.26 13.43 0.635-1.099-17.535-12.184-16.817-13.43 0.558-0.966 16.162 10.851 16.82 9.711 0.391-0.677-11.709-8.86-11.218-9.711 0.459-0.795 11.018 6.83 11.221 6.479 0.295-0.512-6.24-6.153-6.051-6.479 0.263-0.455 5.811 3.913 6.053 3.495 0.134-0.232-0.78-3.367-0.706-3.495 0.025-0.044 0.702 0.42 0.709 0.409" stroke="#fff" stroke-linecap="round" stroke-width="1.417" fill="none"/>
</g>
<g id="g182" transform="translate(574.52 931.42)">
<path id="path184" stroke-linejoin="round" d="m0 0c0.595-1.03 11.677 8.264 12.336 7.123 0.326-0.564-23.781-16.617-23.596-16.937 0.983-1.704 35.721 25.018 37.624 21.722 1.467-2.541-43.878-26.141-42.879-27.872 2.865-4.961 48.158 33.811 50.759 29.306 1.068-1.851-56.985-31.584-54.887-35.219 1.273-2.205 60.169 39.031 62.028 35.813 1.235-2.14-66.714-39.04-65.284-41.516 0.936-1.621 70.448 44.544 72.124 41.641 2.485-4.305-77.124-40.871-74.189-45.954 0.176-0.306 77.377 49.792 79.593 45.954 3.805-6.59-84.12-45.288-81.322-50.132 0.095-0.166 86.069 51.45 86.831 50.132 2.02-3.5-90.549-50.385-88.211-54.435 4.434-7.681 90.986 60.148 94.284 54.436 3.299-5.714-98.003-52.986-95.236-57.778 1.81-3.136 94.942 66.663 100.07 57.778 4.009-6.94-105.06-54.021-100.85-61.312 3.816-6.611 103.86 65.354 106.2 61.313 5.92-10.265-108.88-61.238-106.83-64.784 5.632-9.752 108.58 71.077 112.21 64.784 4.582-7.937-112.74-68.282-112.68-68.379 3.903-6.758 115.98 72.642 118.44 68.379 6.236-10.805-120.47-68.751-118.72-71.782 3.706-6.416 120.5 78.414 124.33 71.782 5.494-9.512-130.64-64.917-124.49-75.574 1.324-2.296 129.08 78.731 130.9 75.575 7.315-12.674-135-72.138-130.95-79.15 0.918-1.59 52.642 32.311 53.473 30.871 0.425-0.736-55.713-30.501-53.472-34.382 0.248-0.429 43.922 31.457 46.563 26.884 0.749-1.298-47.965-27.638-46.564-30.064 1.071-1.854 42.416 27.529 43.733 25.248 0.684-1.186-46.183-24.367-43.733-28.61 1.611-2.789 41.885 24.266 41.922 24.203 1.905-3.3-43.661-24.125-41.922-27.136 0.282-0.488 40.9 23.679 40.929 23.63 1.536-2.662-42.163-24.566-40.929-26.704 1.992-3.448 38.049 27.068 40.257 23.244 0.345-0.598-41.51-24.216-40.257-26.388 0.196-0.339 38.277 26.163 40.037 23.114 0.925-1.603-42.253-22.317-40.037-26.158 2.136-3.699 38.75 25.121 39.94 23.06 1.943-3.366-41.382-23.865-39.94-26.363 2.029-3.511 38.834 24.977 39.941 23.06 1.546-2.679-42.104-22.736-39.941-26.484 1.139-1.971 39.429 23.947 39.94 23.061 0.865-1.498-41.596-22.98-39.94-25.85 0.74-1.281 38.484 25.581 39.94 23.059 0.919-1.592-40.77-25.309-39.94-26.747 0.49-0.849 38.267 25.957 39.94 23.059 1.225-2.123-40.323-25.903-39.94-26.568 1.079-1.867 38.073 26.295 39.94 23.06 0.256-0.443-40.847-24.445-39.94-26.016 0.162-0.28 38.657 25.282 39.94 23.06 1.79-3.1-40.727-25.088-39.94-26.452 0.551-0.953 38.102 26.245 39.94 23.06 0.528-0.915-41.137-24.612-39.94-26.686 0.503-0.872 37.684 26.966 39.94 23.059 1.705-2.952-40.004-26.333-39.94-26.444 1.294-2.24 37.658 27.012 39.94 23.059 2.111-3.655-40.018-26.053-39.94-26.19 0.095-0.164 37.967 26.477 39.94 23.059 2.366-4.096-41.602-23.875-39.94-26.754 1.363-2.359 38.469 25.607 39.94 23.059 1.088-1.884-41.612-23.966-39.94-26.862 1.954-3.383 38.357 25.801 39.94 23.058 1.763-3.052-42.283-22.75-39.94-26.809 0.729-1.262 38.928 24.811 39.94 23.059 1.208-2.092-41.148-24.528-39.94-26.621 2.09-3.619 37.79 26.785 39.94 23.06 0.393-0.682-40.435-25.964-39.939-26.822 0.318-0.55 39.223 24.3 39.939 23.059 1.658-2.871-40.993-25.082-39.94-26.906 1.175-2.035 38.2 26.073 39.94 23.06 2.283-3.955-41.256-23.507-39.94-25.789 0.458-0.793 38.643 25.307 39.94 23.06 0.584-1.011-42.101-22.784-39.94-26.527 0.222-0.384 38.524 25.512 39.94 23.059 1.686-2.921-42.278-22.119-39.94-26.17 1.57-2.718 37.668 26.994 39.94 23.059 1.425-2.467-42.284-22.721-39.94-26.781 0.535-0.926 39.137 24.45 39.94 23.058 1.324-2.293-40.144-25.971-39.94-26.325 0.859-1.487 38.666 25.267 39.94 23.06 0.625-1.083-41.966-22.737-39.94-26.246 0.281-0.487 38.588 25.4 39.94 23.058 2.34-4.053-41.147-24.129-39.94-26.22 2.086-3.612 39.296 24.176 39.94 23.06 1.932-3.346-40.251-25.745-39.94-26.285 0.821-1.422 39.56 23.718 39.94 23.059 0.699-1.21-41.149-24.44-39.94-26.536 1.253-2.171 39.449 23.911 39.94 23.06 2.201-3.812-40.674-25.24-39.94-26.512 1.204-2.084 37.906 26.582 39.94 23.059 0.917-1.588-41.846-23.531-39.94-26.831 1.611-2.79 38.955 24.765 39.94 23.059 1.726-2.988-41.865-23.388-39.94-26.725 0.262-0.453 37.941 26.521 39.94 23.059 0.214-0.37-40.182-25.804-39.94-26.224 1.547-2.679 39.7 23.475 39.94 23.059 2.262-3.919-40.801-24.646-39.94-26.139 1.458-2.525 38.958 24.76 39.94 23.061 0.405-0.703-41.637-22.821-39.939-25.763 0.257-0.445 39.453 23.903 39.939 23.06 1.056-1.828-40.064-25.69-39.94-25.904 1.965-3.405 38.012 26.397 39.94 23.058 0.512-0.887-41.547-23.049-39.94-25.833 1.032-1.788 38.162 26.139 39.94 23.06 1.527-2.645-41.347-23.763-39.94-26.2 1.655-2.867 38.712 25.186 39.94 23.059 1.971-3.414-41.983-22.324-39.94-25.865 1.355-2.347 39.508 23.809 39.94 23.059 2.382-4.124-40.251-26.056-39.804-26.831 0.463-0.8 37.735 26.565 39.804 22.981 1.741-3.016-40.028-25.027-39.69-25.613 2.207-3.824 38.89 24.301 39.69 22.916 1.592-2.758-39.839-25.208-39.372-26.016 1.103-1.912 37.603 25.795 39.372 22.731 0.536-0.928-40.473-23.311-38.952-25.946 1.46-2.527 38.41 23.427 38.952 22.488 2.199-3.807-40.076-22.619-38.405-25.513 2.104-3.645 37.982 22.906 38.405 22.174 0.544-0.943-38.014-24.754-37.724-25.256 0.97-1.68 37.018 23.004 37.724 21.78 1.749-3.028-38.343-22.134-37.1-24.287 1.132-1.961 36.814 21.914 37.1 21.419 0.875-1.516-36.389-23.794-36.308-23.934 1.428-2.473 34.358 24.665 36.449 21.044 1.411-2.444-37.111-21.044-35.656-23.563 1.908-3.307 34.233 23.533 35.865 20.706 0.691-1.197-36.006-21.302-34.825-23.347 1.009-1.749 33.919 23.005 35.401 20.438 1.863-3.228-35.102-21.637-34.407-22.84 1.434-2.484 33.471 22.99 35.059 20.241 0.348-0.603-34.863-21.151-33.795-23.001 1.923-3.332 34.573 20.446 34.783 20.082 0.422-0.73-33.787-22.013-33.691-22.179 1.287-2.228 34.043 21.089 34.664 20.013 1.954-3.385-35.024-19.641-33.327-22.58 1.423-2.465 33.539 21.834 34.608 19.981 1.774-3.071-34.578-19.78-32.978-22.551 0.062-0.108 33.599 21.841 34.657 20.009 0.87-1.506-34.624-19.796-32.996-22.615 1.238-2.144 32.864 23.572 34.855 20.123 0.512-0.887-34.832-19.469-33.036-22.578 0.095-0.166 34.875 20.606 35.078 20.252 0.352-0.609-34.32-20.77-33.224-22.666 0.286-0.497 34.319 22.674 35.557 20.528 1.255-2.174-35.03-20.522-33.878-22.518 0.061-0.106 35.623 21.377 35.974 20.769 0.835-1.447-35.74-19.869-33.94-22.988 1.368-2.368 34.572 24.787 36.662 21.168 2.063-3.574-34.628-23.303-34.615-23.324 0.095-0.164 37.225 22.355 37.599 21.707 0.176-0.303-36.062-22.66-35.504-23.628 0.878-1.522 36.716 25.469 38.565 22.266 1.007-1.745-37.201-22.917-36.465-24.192 0.446-0.771 38.055 26.21 39.891 23.03 1.236-2.14-39.039-22.252-37.495-24.927 1.575-2.728 40.454 26.234 41.7 24.076 0.431-0.747-40.477-24.1-39.527-25.744 0.501-0.868 42.547 27.872 43.98 25.391 2.386-4.134-42.944-24.636-41.517-27.108 2.287-3.961 40.27 28.474 42.533 24.556 2.09-3.621-41.772-22.82-39.741-26.337 1.094-1.895 38.86 24.476 39.743 22.946 1.136-1.966-38.075-22.867-37.149-24.47 1.023-1.772 36.631 22.351 37.151 21.449 1.536-2.66-35.406-20.487-33.861-23.163 0.617-1.069 33.346 20.45 33.865 19.552 0.306-0.53-31.656-18.933-30.372-21.156 0.559-0.969 29.548 18.968 30.374 17.536 0.449-0.776-28.756-16.69-27.607-18.682 0.654-1.132 26.681 17.548 27.609 15.941 1.256-2.175-24.423-16.213-23.814-17.269 0.472-0.817 22.743 15.612 23.817 13.751 0.842-1.457-21.295-12.796-20.061-14.933 0.258-0.446 19.644 12.311 20.064 11.584 0.554-0.959-16.357-11.213-15.562-12.59 0.853-1.477 14.95 10.05 15.564 8.986 0.537-0.931-10.686-9.739-10.637-9.823 0.523-0.907 10.56 6.283 10.64 6.143 0.37-0.64-6.16-6.167-5.859-6.689 0.247-0.428 5.525 3.967 5.862 3.385 0.14-0.244-0.669-3.588-0.657-3.61 0.019-0.033 0.637 0.418 0.66 0.38" stroke="#fff" stroke-linecap="round" stroke-width="1.417" fill="none"/>
</g>
<g id="g186" transform="translate(957.66 974.63)">
<path id="path188" stroke-linejoin="round" d="m0 0c0.017-0.029 0.335 0.237 0.354 0.205 0.041-0.07-0.376-3.48-0.354-3.519 0.084-0.147 3.062 2.144 3.225 1.861 0.17-0.295-3.341-4.776-3.225-4.978 0.334-0.579 5.62 3.947 5.923 3.42 0.15-0.259-6.217-6.44-5.923-6.95 0.184-0.318 8.71 5.652 8.98 5.186 0.203-0.352-9.215-8.602-8.98-9.009 0.159-0.277 12.006 7.591 12.292 7.096 0.455-0.788-12.829-9.285-12.292-10.216 0.033-0.058 14.576 9.38 14.994 8.656 0.761-1.317-15.553-10.867-14.994-11.836 0.02-0.034 17.592 10.516 17.748 10.246 0.437-0.758-18.254-12.875-17.748-13.752 0.978-1.693 20.057 13.259 20.784 12 0.756-1.308-21.417-13.694-20.784-14.791 0.42-0.727 22.012 15.454 23.201 13.395 0.966-1.674-24.216-14.721-23.201-16.479 0.93-1.611 25.304 15.922 25.872 14.938 1.497-2.593-26.389-17.153-25.872-18.047 1.434-2.483 27.64 18.094 28.564 16.492 1.209-2.094-28.579-19.79-28.564-19.816 1.036-1.793 30.79 19.285 31.443 18.154 1.71-2.962-31.922-20.564-31.443-21.395 1.021-1.767 33.195 21.601 34.25 19.774 1.565-2.711-36.004-20.434-34.25-23.472 0.38-0.657 36.932 22.526 37.452 21.623 2.158-3.737-38.646-23.103-37.452-25.171 0.695-1.205 39.896 24.488 40.525 23.397 0.326-0.563-42.239-23.938-40.525-26.907 0.232-0.402 41.095 29.431 43.565 25.153 0.703-1.217-44.878-26.059-43.565-28.334 1.133-1.963 44.925 29.158 46.32 26.743 0.723-1.253-48.91-25.618-46.32-30.105 1.891-3.275 49.188 28.499 49.231 28.424 2.228-3.857-51.263-27.837-49.231-31.357 0.356-0.615 51.735 29.954 51.772 29.891 1.93-3.343-53.322-30.28-51.772-32.963 2.692-4.664 51.447 36.597 54.434 31.425 0.461-0.798-56.114-31.662-54.434-34.571 0.279-0.483 54.644 37.352 57.157 32.999 1.308-2.265-60.29-30.615-57.157-36.043 3.197-5.537 58.011 37.608 59.792 34.522 2.872-4.975-61.924-34.131-59.792-37.824 3.182-5.51 60.917 39.179 62.652 36.173 2.392-4.143-65.997-33.802-62.652-39.595 1.871-3.242 64.777 39.337 65.617 37.883 1.403-2.429-68.304-36.02-65.617-40.674 1.259-2.18 65.553 43.576 68.034 39.279 1.539-2.666-69.425-40.559-68.034-42.968 0.874-1.513 68.244 46.292 71.229 41.124 2.146-3.719-71.902-43.467-71.229-44.633 2.004-3.47 70.793 48.895 74.267 42.879 0.467-0.809-75.928-42.957-74.267-45.835 0.312-0.538 74.358 48.632 76.827 44.357 3.379-5.854-78.312-45.175-76.827-47.748 1.099-1.904 76.092 52.412 79.764 46.052 1.033-1.789-82.106-45.623-79.764-49.679 1.044-1.809 78.221 55.978 82.905 47.865 3.468-6.006-83.035-51.024-82.905-51.249 2.78-4.816 80.932 58.053 85.836 49.558" stroke="#fff" stroke-linecap="round" stroke-width="1.417" fill="none"/>
</g>
<g id="g190" transform="translate(717.49 689.96)">
<path id="path192" stroke-linejoin="round" d="m0 0c0.028-0.049 0.677 0.465 0.708 0.409 0.178-0.306-0.906-3.62-0.706-3.966 0.065-0.112 6.698 4.269 6.872 3.967 0.336-0.584-6.953-7.017-6.869-7.164 0.589-1.02 12.27 7.4 12.407 7.163 0.469-0.813-12.604-10.571-12.404-10.919 0.789-1.366 18.794 11.122 18.911 10.919 0.468-0.809-19.248-13.799-18.909-14.386 0.449-0.778 24.591 14.955 24.918 14.387 0.996-1.724-25.886-16.415-24.915-18.098 0.102-0.175 30.145 20.176 31.345 18.098 0.941-1.631-32.118-20.116-31.343-21.459 0.586-1.014 35.528 24.297 37.167 21.459 0.43-0.743-37.348-24.91-37.163-25.229 0.759-1.317 41.82 28.481 43.698 25.229 2.132-3.693-44.856-26.259-43.696-28.267 0.63-1.092 47.473 30.842 48.96 28.267 1.525-2.641-50.174-29.806-48.958-31.912 2.009-3.479 54.503 33.245 55.272 31.912 1.066-1.846-57.111-31.775-55.269-34.965 1.068-1.851 57.721 39.883 60.56 34.965 1.51-2.615-61.453-36.687-60.558-38.237 3.805-6.591 62.956 43.906 66.229 38.237 1.943-3.366-63.145-39.406-62.82-39.97 2.245-3.887 68.613 41.037 69.229 39.97 3.721-6.445-66.597-34.534-63.459-39.969 1.497-2.593 69.026 40.317 69.227 39.969 3.085-5.344-65.054-36.576-63.095-39.969 3.182-5.512 67.626 42.743 69.227 39.969 0.762-1.318-66.313-36.366-64.233-39.969 2.605-4.511 67.389 43.151 69.226 39.969 0.445-0.771-63.428-38.964-62.849-39.968 3.893-6.742 68.978 40.398 69.226 39.968 3.68-6.374-66.416-33.579-62.728-39.967 2.925-5.068 68.477 41.262 69.224 39.967 1.024-1.773-64.689-36.373-62.615-39.967 3.138-5.434 65.668 46.125 69.224 39.966 0.291-0.504-66.543-35.389-63.901-39.965 2.274-3.939 67.089 43.661 69.222 39.966 1.019-1.764-67.413-34.529-64.275-39.965 3.823-6.621 65.474 46.457 69.222 39.965 0.717-1.24-66.809-33.636-63.155-39.965 3.495-6.053 66.863 44.05 69.221 39.965 3.522-6.099-65.835-36.244-63.687-39.965 3.465-6.002 68.646 40.959 69.221 39.965 0.888-1.539-65.255-37.542-63.857-39.965 3.113-5.39 67.08 43.67 69.219 39.965 3.475-6.018-64.431-38.075-63.341-39.964 3.955-6.85 68.69 40.88 69.219 39.964 2.984-5.17-66.091-35.355-63.431-39.963 3.86-6.685 67.632 42.71 69.218 39.963 0.939-1.625-62.828-39.642-62.643-39.963 1.806-3.127 65.604 46.22 69.217 39.963 0.771-1.336-63.711-39.306-63.332-39.962 0.78-1.35 68.317 41.519 69.216 39.962 1.749-3.03-65.616-37.085-63.955-39.962 1.984-3.436 66.651 44.404 69.215 39.962 0.143-0.248-67.144-33.754-63.561-39.961 0.198-0.343 68.968 40.389 69.215 39.961 1.075-1.863-66.509-36.127-64.295-39.961 2.716-4.703 67.305 43.267 69.214 39.961 0.998-1.73-66.908-35.709-64.453-39.961 2.129-3.687 66.861 44.033 69.213 39.961 2.909-5.039-64.844-38.602-64.06-39.96 0.637-1.103 69.031 40.273 69.212 39.96 0.898-1.556-67.832-34.251-64.536-39.96 0.901-1.559 66.127 45.301 69.211 39.96 1.1-1.904-64.783-37.431-63.324-39.959 1.083-1.877 67.6 42.748 69.211 39.958 0.258-0.447-67.49-34.84-64.534-39.958 1.621-2.808 68.699 40.842 69.209 39.958 0.172-0.297-66.007-35.913-63.672-39.957 2.499-4.329 65.973 45.563 69.209 39.958 2.453-4.249-66.315-34.722-63.291-39.958 1.08-1.871 68.468 41.237 69.208 39.957 3.293-5.703-65.84-35.363-63.188-39.956 0.383-0.664 68.23 41.65 69.208 39.957 2.102-3.641-63.093-39.615-62.896-39.957 2.031-3.517 67.981 42.08 69.207 39.957 1.468-2.543-65.609-38.041-64.503-39.956 0.524-0.907 65.744 45.951 69.206 39.956 3.538-6.129-65.292-35.415-62.67-39.956 1.421-2.462 69.085 40.164 69.205 39.956 2.159-3.74-64.953-36.498-62.957-39.956 2.946-5.102 68.498 41.179 69.204 39.955 2.559-4.43-66.68-35.965-64.376-39.954 1.142-1.978 67.465 42.965 69.203 39.955 3.263-5.652-65.852-36.963-64.125-39.955 0.316-0.547 65.757 45.923 69.203 39.955 1.872-3.242-65.982-34.879-63.051-39.954 0.096-0.167 66.837 44.05 69.202 39.954 1.181-2.047-65.529-36.507-63.538-39.954 3.346-5.796 67.169 43.472 69.201 39.953 3.077-5.329-64.614-36.74-62.759-39.952 0.015-0.025 66.145 45.243 69.2 39.952 0.809-1.402-63.58-38.266-62.608-39.951 0.386-0.669 69.197 39.956 69.199 39.952 1.399-2.422-66.719-34.104-63.343-39.951 0.305-0.528 66.73 44.227 69.198 39.951 2.41-4.174-65.835-36.27-63.71-39.951 2.01-3.481 65.964 45.551 69.198 39.951 3.123-5.409-66.55-35.974-64.254-39.951 2.466-4.271 68.846 40.559 69.196 39.951 3.17-5.49-64.079-37.33-62.566-39.95 2.429-4.208 65.737 45.941 69.196 39.95 0.93-1.611-65.104-38.101-64.037-39.95 2.103-3.642 66.496 44.624 69.195 39.949 0.541-0.936-66.34-34.88-63.413-39.949 2.204-3.817 66.032 45.427 69.194 39.949 0.468-0.809-66.795-35.591-64.279-39.948 1.404-2.433 66.741 44.195 69.194 39.948 1.001-1.733-65.699-34.505-62.556-39.948 1.805-3.126 68.594 40.984 69.192 39.948 0.139-0.24-67.597-33.678-63.978-39.947 1.13-1.957 67.221 43.36 69.192 39.948 3.506-6.074-64.874-36.244-62.736-39.947 3.528-6.11 66.782 44.12 69.191 39.947 0.044-0.076-65.211-37.282-63.672-39.947 1.587-2.748 67.577 42.74 69.19 39.947 2.193-3.799-65.23-35.643-62.746-39.946 2.295-3.976 66.485 44.63 69.189 39.946 1.981-3.431-66.069-35.645-63.586-39.945 2.834-4.91 67.941 42.105 69.188 39.945 2.516-4.358-65.618-37.174-64.017-39.946 3.027-5.243 66.891 45.026 69.665 40.222 2.849-4.936-65.606-37.514-64.043-40.221 2.699-4.677 74.075 44.271 74.727 43.142 1.419-2.457-71.731-37.32-68.369-43.141 2.488-4.31 125.2 83.43 130.03 75.072 5.651-9.788-128.36-69.277-125.02-75.072 5.217-9.036 119.21 81.94 124.89 72.106 5.854-10.141-125.84-60.677-119.24-72.105 1.599-2.77 112.94 79.181 118.99 68.699 1.383-2.395-116.94-61.683-112.89-68.699 4.766-8.255 108.62 71.42 112.39 64.888 1.283-2.221-111.95-55.081-106.29-64.888 2.597-4.497 102.75 65.83 105.56 60.949 3.393-5.875-105.97-51.404-100.46-60.949 3.379-5.852 97.067 62.152 99.712 57.569 0.358-0.619-95.327-56.507-94.715-57.568 3.453-5.98 89.057 62.147 93.703 54.099 4.989-8.64-87.947-53.464-87.581-54.098 3.601-6.239 84.856 51.963 86.143 49.734 3.222-5.58-81.763-45.771-79.476-49.734 0.089-0.153 76.735 45.799 77.382 44.677 3.304-5.722-72.22-43.341-71.449-44.676 0.193-0.336 67.611 42.157 68.963 39.815 3.388-5.867-66.765-33.223-63.062-39.636 0.702-1.215 57.777 38.654 60.07 34.681 1.704-2.95-53.857-34.086-53.851-34.097 0.34-0.588 49.967 29.371 50.193 28.98 1.733-3.002-42.063-25.579-41.1-27.246 0.086-0.15 33.777 22.266 34.975 20.192 1-1.733-22.998-14.919-22.514-15.756 0.706-1.221 11.889 7.896 12.335 7.122" stroke="#fff" stroke-linecap="round" stroke-width="1.417" fill="none"/>
</g>
<g id="g194" transform="translate(1071 945.07)">
<path id="path196" stroke-linejoin="round" d="m0 0c0.032-0.056 0.623 0.44 0.658 0.38 0.042-0.073-0.681-3.652-0.658-3.694 0.156-0.271 5.681 3.977 5.983 3.454 0.255-0.442-6.156-6.27-5.983-6.57 0.591-1.023 9.937 6.976 10.473 6.046 0.233-0.402-10.93-8.785-10.473-9.576 0.313-0.541 14.771 9.582 15.228 8.792 0.315-0.548-15.593-11.983-15.228-12.616 0.259-0.448 19.51 12.336 19.975 11.531 0.705-1.221-20.808-13.208-19.975-14.65 0.052-0.091 22.82 14.683 23.474 13.552 1.148-1.988-24.318-15.271-23.474-16.732 0.03-0.053 26.735 15.98 26.972 15.571 0.644-1.115-27.717-17.788-26.972-19.079 1.434-2.481 29.409 19.443 30.475 17.596 1.086-1.881-31.385-18.809-30.475-20.387 0.602-1.041 31.517 22.129 33.22 19.18 1.357-2.352-34.646-19.793-33.22-22.264 1.294-2.24 35.213 22.158 36.005 20.787 2.05-3.55-36.713-22.669-36.005-23.895 1.947-3.372 37.539 24.574 38.795 22.398 1.619-2.803-38.815-25.688-38.795-25.721 1.368-2.371 40.651 25.46 41.513 23.967 2.232-3.866-42.139-26.124-41.513-27.208 1.316-2.279 42.803 27.852 44.163 25.496 1.775-3.074-41.058-22.809-39.068-26.254 0.423-0.733 41.223 25.145 41.805 24.137 2.148-3.72-38.457-23.008-37.268-25.066 0.684-1.185 39.258 24.096 39.877 23.023 0.291-0.503-37.605-21.678-36.071-24.335 0.205-0.354 36.238 25.952 38.416 22.181 0.575-0.996-36.429-21.733-35.354-23.594 0.917-1.588 36.353 23.594 37.48 21.64 0.546-0.944-36.476-19.911-34.523-23.294 1.404-2.432 36.528 21.162 36.56 21.107 1.566-2.714-35.649-20.213-34.219-22.689 0.247-0.428 35.954 20.817 35.979 20.773 1.279-2.214-34.813-20.802-33.787-22.581 1.757-3.043 33.571 23.881 35.519 20.507 0.287-0.498-34.443-20.61-33.395-22.426 0.171-0.295 33.533 22.923 35.076 20.252 0.775-1.343-35.156-19.052-33.299-22.268 1.866-3.234 33.859 21.95 34.899 20.149 1.623-2.811-34.308-20.328-33.103-22.415 1.76-3.048 33.696 21.671 34.656 20.009 1.288-2.232-34.793-19.352-32.991-22.471 0.986-1.709 34.158 20.744 34.6 19.977 0.729-1.262-34.846-19.686-33.45-22.104 0.641-1.108 33.348 22.168 34.61 19.983 0.771-1.336-33.905-21.655-33.208-22.862 0.426-0.736 33.251 22.555 34.705 20.037 1.041-1.803-34.014-22.392-33.688-22.958 0.944-1.634 33.348 23.033 34.984 20.199 0.22-0.382-35.057-21.388-34.274-22.744 0.143-0.249 34.146 22.332 35.28 20.369 1.563-2.707-35.345-22.212-34.658-23.403 0.493-0.853 34.119 23.502 35.766 20.651 0.471-0.817-36.531-22.251-35.462-24.102 0.459-0.796 34.392 24.611 36.451 21.045 1.555-2.694-36.372-24.248-36.314-24.35 1.206-2.088 35.099 25.177 37.227 21.493 1.972-3.416-37.3-24.496-37.227-24.623 0.09-0.157 35.988 25.097 37.858 21.857 2.247-3.893-39.437-22.816-37.858-25.553 1.317-2.28 37.182 24.75 38.604 22.287 1.053-1.824-40.223-23.286-38.604-26.09 1.913-3.314 37.57 25.27 39.12 22.585 1.728-2.993-41.418-22.357-39.12-26.336 0.723-1.252 38.59 24.596 39.594 22.858 1.197-2.074-40.792-24.345-39.594-26.419 2.081-3.604 37.63 26.67 39.771 22.962 0.392-0.68-40.265-25.87-39.771-26.726 0.318-0.549 39.22 24.299 39.936 23.058 1.658-2.87-40.989-25.079-39.936-26.904 1.175-2.034 38.201 26.073 39.941 23.059 2.282-3.953-41.258-23.507-39.941-25.787 0.458-0.795 38.642 25.307 39.94 23.059 0.584-1.011-42.101-22.783-39.94-26.528 0.222-0.382 38.524 25.513 39.941 23.06 1.686-2.921-42.281-22.119-39.942-26.17 1.571-2.72 37.669 26.995 39.941 23.06 1.425-2.467-42.284-22.722-39.94-26.784 0.535-0.924 39.137 24.453 39.94 23.06 1.324-2.292-40.144-25.972-39.94-26.325 0.86-1.488 38.666 25.267 39.94 23.059 0.626-1.083-41.967-22.736-39.941-26.246 0.282-0.486 38.589 25.402 39.941 23.06 2.341-4.054-41.148-24.13-39.941-26.221 2.086-3.612 39.297 24.176 39.941 23.06 1.931-3.346-40.251-25.745-39.941-26.284 0.822-1.422 39.561 23.716 39.941 23.058 0.699-1.211-41.151-24.439-39.941-26.535 1.254-2.171 39.45 23.91 39.941 23.06 2.201-3.813-40.675-25.242-39.941-26.513 1.204-2.085 37.907 26.583 39.941 23.059 0.917-1.588-41.846-23.53-39.941-26.831 1.612-2.791 38.956 24.765 39.941 23.059 1.725-2.987-41.866-23.389-39.94-26.725 0.261-0.453 37.941 26.521 39.94 23.059 0.214-0.371-40.183-25.804-39.94-26.225 1.546-2.677 39.699 23.476 39.94 23.059 2.262-3.917-40.802-24.647-39.941-26.138 1.459-2.526 38.959 24.759 39.941 23.06 0.405-0.702-41.639-22.821-39.941-25.762 0.258-0.446 39.454 23.902 39.941 23.06 1.056-1.829-40.065-25.691-39.941-25.906 1.966-3.404 38.013 26.4 39.941 23.06 0.512-0.887-41.548-23.05-39.941-25.834 1.033-1.788 38.163 26.14 39.941 23.06 1.527-2.645-41.348-23.763-39.941-26.201 1.655-2.866 38.713 25.187 39.941 23.06 1.971-3.414-41.985-22.324-39.941-25.863 1.356-2.348 39.509 23.806 39.94 23.058 2.39-4.138-40.388-26.134-39.94-26.91 0.465-0.805 37.865 26.654 39.94 23.06 1.752-3.035-40.28-25.169-39.94-25.758 2.222-3.849 39.135 24.454 39.94 23.059 1.614-2.796-40.412-25.524-39.94-26.343 1.12-1.94 38.147 26.167 39.941 23.06 0.549-0.952-41.499-23.818-39.941-26.517 1.497-2.593 39.386 24.02 39.94 23.059 2.284-3.954-41.675-23.395-39.94-26.4 2.189-3.791 39.5 23.821 39.94 23.059 0.575-0.997-40.246-26.005-39.94-26.535 1.027-1.779 39.193 24.355 39.94 23.06 1.879-3.254-41.275-23.616-39.94-25.927 1.219-2.111 39.633 23.591 39.94 23.059 0.96-1.663-40.029-25.879-39.94-26.032 1.565-2.711 37.649 27.028 39.94 23.059 1.574-2.727-41.563-23.225-39.94-26.036 2.126-3.683 38.122 26.207 39.94 23.059 0.789-1.367-41.286-23.968-39.94-26.3 1.139-1.973 38.269 25.954 39.94 23.058 2.152-3.726-40.742-24.646-39.94-26.035 1.633-2.828 38.132 26.191 39.94 23.06 0.408-0.706-41.194-24.38-39.94-26.551 2.208-3.825 39.699 23.478 39.94 23.059 0.497-0.861-40.053-25.589-39.94-25.786 1.482-2.566 39.224 24.3 39.94 23.06 2.324-4.025-41.958-22.903-39.94-26.398 1.642-2.843 38.706 25.197 39.94 23.06 2.13-3.69-41.862-23.244-39.941-26.571 0.072-0.124 38.722 25.171 39.941 23.059 1.044-1.808-41.894-23.242-39.941-26.625 1.418-2.457 37.66 27.011 39.941 23.06 0.615-1.066-42.173-22.874-40.016-26.609 0.108-0.188 39.783 23.505 40.016 23.103 0.422-0.731-41.567-24.444-40.251-26.724 0.324-0.56 38.849 25.668 40.251 23.24 1.505-2.607-42.282-24.181-40.901-26.574 0.069-0.119 40.502 24.305 40.901 23.614 1.026-1.778-44.286-23.853-42.074-27.684 1.569-2.719 39.675 28.445 42.074 24.291 2.596-4.496-43.985-28.695-43.968-28.725 0.11-0.191 43.53 26.143 43.968 25.385 0.228-0.396-47.613-28.931-46.882-30.197 1.067-1.849 44.631 30.962 46.88 27.066 1.453-2.515-54.359-32.068-53.297-33.908 0.595-1.03 50.828 35.008 53.28 30.762" stroke="#fff" stroke-linecap="round" stroke-width="1.417" fill="none"/>
</g>
<g id="g198" transform="translate(646.13 670.47)">
<path id="path200" stroke-linejoin="round" d="m0 0c4.147-7.184 81.328 57.547 85.914 49.603 1.097-1.901-83.665-50.183-83.044-51.26 2.17-3.757 78.844 55.22 83.044 47.945 2.707-4.688-82.19-46.309-80.346-49.503 4.534-7.852 76.229 53.518 80.346 46.388 1.492-2.584-80.219-43.077-77.289-48.152 1.586-2.748 74.973 48.634 77.289 44.623 1.396-2.417-75.592-43.738-73.977-46.536 0.959-1.661 72.257 45.69 73.977 42.711 2.389-4.137-74.097-39.383-71.275-44.27 0.158-0.275 69.291 44.588 71.275 41.15 3.216-5.57-70.886-38.644-68.521-42.74 0.075-0.131 67.92 40.601 68.521 39.561 1.51-2.615-67.231-38.29-65.485-41.315 3.08-5.334 63.194 41.776 65.485 37.809 2.199-3.81-64.911-36.01-63.067-39.204 1.141-1.976 59.835 42.011 63.067 36.412 2.422-4.195-62.94-33.547-60.396-37.953 2.171-3.761 59.069 37.169 60.396 34.87 3.237-5.608-58.822-34.489-57.704-36.426 2.895-5.014 55.835 36.553 57.704 33.315 2.261-3.915-54.853-34.928-54.826-34.976 1.807-3.128 53.687 33.626 54.826 31.653 2.777-4.809-52.798-31.925-52.019-33.273 1.55-2.686 50.418 32.807 52.019 30.033 2.199-3.809-51.279-27.616-48.816-31.882 0.494-0.856 48.137 29.36 48.816 28.184 2.615-4.53-47.19-27.453-45.743-29.958 0.785-1.361 45.033 27.64 45.743 26.41 0.342-0.594-44.506-25.043-42.703-28.166 0.227-0.394 40.281 28.849 42.703 24.655 0.646-1.119-41.157-24.152-39.949-26.245 0.977-1.692 38.746 25.148 39.949 23.064 0.584-1.01-39.126-21.129-37.038-24.746 1.423-2.463 37.006 21.44 37.039 21.385 1.578-2.734-35.939-20.355-34.498-22.851 0.237-0.41 34.473 19.959 34.497 19.917 1.207-2.09-32.805-19.774-31.836-21.453 1.575-2.727 30.09 21.405 31.836 18.38 0.253-0.437-30.031-18.36-29.112-19.952 0.142-0.246 27.832 19.024 29.112 16.808 0.624-1.08-27.97-15.744-26.476-18.33 1.416-2.453 25.687 16.653 26.477 15.286 1.179-2.043-24.493-15.42-23.617-16.938 1.199-2.077 22.962 14.769 23.617 13.635 0.83-1.438-21.813-13.334-20.652-15.346 0.589-1.02 20.386 12.381 20.651 11.923 0.41-0.711-19.021-11.956-18.235-13.318 0.338-0.584 17.571 11.678 18.235 10.528 0.373-0.645-15.377-11.789-15.04-12.373 0.184-0.319 14.41 9.775 15.04 8.685 0.406-0.705-12.129-10.218-12.002-10.439 0.324-0.56 11.441 7.902 12.003 6.93 0.067-0.117-9.684-7.99-9.443-8.407 0.038-0.067 9.139 5.976 9.442 5.451 0.361-0.625-6.664-6.872-6.505-7.147 0.09-0.155 6.206 4.275 6.505 3.756 0.072-0.124-3.526-5.289-3.364-5.569 0.043-0.074 3.175 2.27 3.365 1.941 0.13-0.225-0.438-3.625-0.434-3.634 0.014-0.024 0.409 0.292 0.433 0.25" stroke="#fff" stroke-linecap="round" stroke-width="1.417" fill="none"/>
</g>
</g>
</g>
</svg>