<?xml version="1.0" encoding="UTF-8" standalone="no"?>
<svg id="svg5793" xmlns:rdf="http://www.w3.org/1999/02/22-rdf-syntax-ns#" xmlns="http://www.w3.org/2000/svg" version="1.1" xmlns:cc="http://creativecommons.org/ns#" xmlns:dc="http://purl.org/dc/elements/1.1/" viewBox="0 0 200 200">
<g id="layer1" transform="translate(0 -852.36)">
<g id="g5643" transform="matrix(.25 0 0 -.25 -111.22 1463.6)">
<g id="g202" transform="translate(931.19 2172.2)">
<path id="path204" stroke-linejoin="round" d="m0 0c0.355-0.615 49.192 29.808 49.802 28.753 0.707-1.225-42.223-24.003-40.493-26.999 0.587-1.019 46.257 27.875 46.763 26.999 0.64-1.108-42.062-25.449-41.196-26.949 0.394-0.681 46.582 27.114 46.678 26.949 2.401-4.159-43.786-23.622-41.865-26.949 1.096-1.899 45.902 28.292 46.678 26.949 1.543-2.673-41.945-26.313-41.577-26.95 0.002-0.003 44.632 30.491 46.677 26.949 0.316-0.545-42.223-23.206-40.063-26.949 2.483-4.301 44.836 30.14 46.678 26.949 0.15-0.259-42.645-24.703-41.348-26.949 1.231-2.132 45.223 29.47 46.678 26.95 0.575-0.995-40.91-26.068-40.401-26.95 0.474-0.82 44.411 30.876 46.678 26.949 1.458-2.525-40.58-26.214-40.155-26.949 0.737-1.279 45.406 29.151 46.677 26.949 0.936-1.62-42.732-24.86-41.526-26.949 1.798-3.114 46.665 26.971 46.675 26.949 1.18-2.029-43.167-23.35-41.089-26.949 1.689-2.926 45.209 29.493 46.679 26.949 1.33-2.305-42.216-24.53-40.819-26.949 1.771-3.067 45.876 28.34 46.679 26.949 0.955-1.654-41.623-24.523-40.222-26.95 1.453-2.517 44.494 30.735 46.679 26.95 1.354-2.346-40.981-25.677-40.246-26.95 2.094-3.627 46.563 27.149 46.678 26.95 2.429-4.207-41.097-25.845-40.459-26.95 1.005-1.74 44.653 30.46 46.679 26.95 0.694-1.203-40.348-26.449-40.059-26.95 2.667-4.619 44.571 30.602 46.679 26.95 0.048-0.083-41.211-26.796-41.122-26.95 1.148-1.99 45.301 29.337 46.679 26.95 0.721-1.25-42.726-25.039-41.622-26.95 2.287-3.963 46.137 27.889 46.679 26.95 0.629-1.088-41.833-25.347-40.907-26.95 2.272-3.936 45.072 29.734 46.679 26.95 1.261-2.183-44.152-22.705-41.7-26.95 0.685-1.188 45.449 29.079 46.679 26.95 2.33-4.035-42.088-26.58-41.874-26.951 1.857-3.217 44.405 30.89 46.679 26.951 0.108-0.187-41.783-25.239-40.794-26.951 1.847-3.2 44.551 30.637 46.68 26.95 0.15-0.259-42.292-24.07-40.629-26.95 1.659-2.873 44.843 30.134 46.681 26.951 0.49-0.849-42.32-23.02-40.051-26.951 0.489-0.846 46.581 27.124 46.681 26.951 0.243-0.421-43.713-22.985-41.423-26.951 0.888-1.538 43.185 30.525 45.606 26.331 1.931-3.343-42.108-22.581-39.942-26.331 2.273-3.938 42.807 25.52 43.156 24.916 1.01-1.729-40.4-21.016-38.15-24.917 1.45-2.511 39.53 24.641 40.32 23.277 0.13-0.223-35.37-20.947-34.03-23.277 2.08-3.591 35.2 22.39 36.1 20.838 1.07-1.857-30.57-20.055-30.12-20.838 1.737-3.009 31.314 18.375 31.442 18.153 0.074-0.13-25.386-17.101-24.778-18.153 0.089-0.154 24.639 16.288 25.533 14.741 0.795-1.378-19.744-13.489-19.021-14.741 0.994-1.722 18.797 11.065 18.889 10.906 0.664-1.149-13.652-10.698-13.531-10.907 0.646-1.119 11.77 7.408 12.035 6.949" stroke="#fff" stroke-linecap="round" stroke-width="1.417" fill="none"/>
</g>
<g id="g206" transform="translate(909.5 2190.6)">
<path id="path208" stroke-linejoin="round" d="m0 0c0.153-0.265 9.826 6.169 10.041 5.797 0.756-1.311-20.02-12.615-19.016-14.354 0.913-1.582 30.018 19.919 31.139 17.978 0.325-0.564-36.078-21.135-34.875-23.218 0.719-1.246 39.758 27.01 41.514 23.968 1.927-3.337-44.898-28.562-44.437-29.361 0.116-0.201 49.069 33.099 51.134 29.522 1.724-2.985-53.66-32.593-52.929-33.858 3.093-5.357 55.484 39.333 58.645 33.858 0.188-0.326-63.048-31.504-59.751-37.215 3.364-5.826 62.588 40.455 64.459 37.216" stroke="#fff" stroke-linecap="round" stroke-width="1.417" fill="none"/>
</g>
<g id="g210" transform="translate(598.69 2135.1)">
<path id="path212" stroke-linejoin="round" d="m0 0c1.137-1.97 47.243 30.72 48.734 28.137 2.418-4.187-43.698-22.807-41.294-26.971 2.153-3.729 46.556 27.249 46.715 26.971 0.126-0.218-43.453-23.542-41.484-26.953 1.225-2.12 45.526 28.96 46.685 26.954 1.176-2.037-42.064-24.526-40.662-26.954 1.811-3.137 46.386 27.474 46.685 26.954 1.151-1.994-41.124-25.623-40.355-26.954 2.226-3.857 46.395 27.459 46.686 26.954 2.36-4.087-42.487-22.858-40.123-26.954 2.39-4.138 45.821 28.456 46.688 26.955 1.651-2.861-44.189-23.151-41.992-26.955 2.56-4.434 45.836 28.43 46.688 26.955 1.564-2.71-43.672-22.908-41.335-26.955 0.547-0.948 45.167 29.589 46.689 26.955 0.366-0.636-41.706-25.776-41.025-26.955 1.226-2.124 46.163 27.867 46.689 26.956 1.713-2.966-41.684-26.608-41.483-26.956 1.761-3.05 45.925 28.28 46.69 26.956 1.774-3.068-41.833-25.367-40.914-26.957 2.031-3.518 46.578 27.155 46.688 26.957 0.23-0.387-40.873-26.582-40.656-26.957 2.178-3.773 45.866 28.385 46.686 26.957 0.38-0.642-44.082-23.041-41.821-26.957 1.209-2.094 45.161 29.616 46.691 26.958 0.2-0.352-41.77-25.6-40.986-26.958 1.021-1.768 45.55 28.938 46.693 26.958 0.632-1.095-41.104-25.814-40.444-26.958 1.011-1.75 45.376 29.24 46.694 26.959 0.38-0.659-42.977-25.102-41.905-26.959 2.347-4.065 44.465 30.82 46.695 26.958 0.79-1.362-42.675-23.838-40.873-26.958 0.878-1.523 45.533 28.966 46.693 26.959 2.05-3.552-41.811-25.527-40.983-26.959 1.928-3.341 44.384 30.962 46.695 26.959 0.578-1.001-43.609-24.135-41.978-26.96 1.377-2.384 44.428 30.89 46.696 26.96 1.517-2.628-43.194-24.399-41.715-26.959 2.236-3.874 45.92 28.306 46.697 26.96 1.674-2.9-42.04-24.971-40.892-26.961 2.549-4.413 45.373 29.256 46.698 26.961 1.057-1.831-41.139-25.686-40.404-26.961 2.128-3.684 44.969 29.958 46.699 26.962 1.967-3.408-42.078-23.837-40.273-26.962 1.726-2.991 45.745 28.615 46.699 26.962 0.055-0.095-40.942-26.95-40.935-26.962 1.648-2.854 45.595 28.877 46.701 26.962 2.399-4.155-43.356-23.802-41.532-26.962 2.694-4.665 44.226 31.249 46.701 26.963 2.437-4.222-42.275-26.199-41.834-26.963 1.094-1.895 44.551 30.688 46.702 26.963 2.329-4.035-41.211-26.079-40.7-26.964 1.763-3.053 46.296 27.667 46.702 26.964 2.155-3.734-42.466-26.048-41.938-26.963 2.009-3.48 46.451 27.399 46.703 26.964 0.376-0.652-41.555-26.869-41.5-26.964 1.19-2.062 45.674 28.746 46.703 26.964 1.009-1.747-41.962-24.918-40.78-26.965 1.072-1.857 45.521 29.015 46.704 26.965 1.251-2.166-41.481-24.931-40.307-26.965 1.819-3.151 46.413 27.471 46.705 26.965 0.011-0.019-44.294-23.031-42.022-26.965 2.554-4.425 44.236 31.244 46.706 26.965 2.46-4.261-42.544-25.541-41.721-26.965 2.015-3.491 46.642 27.076 46.706 26.966 0.797-1.381-41.604-25.939-41.012-26.966 1.723-2.983 44.207 31.297 46.707 26.966 1.758-3.043-41.38-25.216-40.37-26.966 1.977-3.424 45.778 28.577 46.708 26.966 0.906-1.569-43.565-22.888-41.21-26.966 1.219-2.111 46.249 27.761 46.708 26.967 0.28-0.484-43.243-24.289-41.697-26.967 1.109-1.921 45.086 29.778 46.709 26.967 2.392-4.143-41.482-26.024-40.937-26.967 2.053-3.557 45.487 29.086 46.71 26.967 0.648-1.123-43.563-22.736-41.12-26.968 1.196-2.071 45.779 28.583 46.711 26.968 0.578-1.002-42.894-25.312-41.938-26.968 2.348-4.067 45.118 29.726 46.71 26.969 1.641-2.842-41.575-24.708-40.27-26.969 1.603-2.776 45.077 29.802 46.712 26.969 1.715-2.969-41.393-26.234-40.969-26.969 0.287-0.497 44.139 31.427 46.713 26.97 1.874-3.247-41.422-25.072-40.326-26.97 0.932-1.614 46.01 28.19 46.714 26.97 0.083-0.143-42.944-23.717-41.066-26.97 2.333-4.041 45.547 28.992 46.714 26.97 0.355-0.615-42.07-25.046-40.959-26.97 2.084-3.61 108.03 71.644 112.05 64.691 2.17-3.712-107.19-62.792-106.09-64.692 6.05-10.482 107.09 73.276 112.04 64.692 0.12-0.207-109.06-58.981-105.77-64.692 0.41-0.703 109.43 69.227 112.05 64.692 0.67-1.151-112.28-55.482-106.96-64.692 2.64-4.571 111.66 65.361 112.05 64.692 1.158-2.005-108.8-60.543-106.4-64.692 0.446-0.771 51.314 34.719 53.52 30.9 2.582-4.474-49.483-27.012-47.239-30.9 1.082-1.874 40.354 28.585 42.643 24.62 1.238-2.143-38.283-23.935-37.888-24.62 1.968-3.41 35.401 22.787 36.419 21.027 0.471-0.817-32.149-18.179-30.505-21.027 1.571-2.722 28.403 19.106 29.575 17.075 0.377-0.652-24.794-15.066-23.634-17.075 0.884-1.531 23.184 13.829 23.377 13.496 0.052-0.091-17.087-13.194-16.913-13.496 0.56-0.969 16.387 10.688 16.919 9.768 0.056-0.098-12.31-9.189-11.975-9.768 0.2-0.346 11.571 7.626 11.981 6.917 0.272-0.471-6.976-6.486-6.727-6.917 0.024-0.042 6.56 4.188 6.734 3.887 0.182-0.315-1.483-3.6-1.317-3.888 0.06-0.104 1.312 0.783 1.323 0.764" stroke="#fff" stroke-linecap="round" stroke-width="1.417" fill="none"/>
</g>
<g id="g214" transform="translate(577.66 2154.2)">
<path id="path216" stroke-linejoin="round" d="m0 0c0.29-0.502 8.85 5.956 9.216 5.321 0.335-0.58-16.555-12.189-16.445-12.379 0.134-0.233 25.554 16.491 26.306 15.187 1.693-2.931-29.665-19.971-29.632-20.028 1.261-2.183 35.628 21.177 35.891 20.721 0.551-0.954-40.38-21.403-38.146-25.273 0.774-1.341 42.711 27.732 44.042 25.428 1.079-1.869-46.511-27.211-45.43-29.084 2.148-3.721 49.552 30.508 50.375 29.084 2.743-4.751-51.457-32.762-51.394-32.87 2.855-4.945 56.47 33.671 56.933 32.871 3.294-5.707-57.815-36.605-57.617-36.948 2.572-4.455 61.395 41.454 63.996 36.948 3.149-5.454-65.419-37.835-64.225-39.905 2.859-4.951 67.418 42.848 69.117 39.905 3.757-6.507-70.527-40.651-69.189-42.968 2.344-4.059 72.03 47.115 74.424 42.969 3.72-6.443-75.898-43.589-74.24-46.461 3.003-5.201 78.507 49.867 80.474 46.461 1.627-2.819-80.648-48.439-79.993-49.574 0.549-0.95 28.629 19.695 29.999 17.321 0.653-1.131-30.831-17.834-29.316-20.459 0.582-1.008 25.056 17.303 26.284 15.175 0.823-1.425-25.549-17.988-25.434-18.188 0.576-0.998 23.408 16.647 24.765 14.298 1.236-2.14-24.084-16.459-23.605-17.289 0.247-0.428 23.005 15.236 23.851 13.77 0.547-0.946-22.884-15.937-22.498-16.606 1.184-2.051 22.935 14.357 23.418 13.52 0.116-0.2-22.806-14.717-22.008-16.1 0.421-0.728 22.946 14.34 23.418 13.521 0.638-1.104-22.152-15.383-22.036-15.583 1.06-1.837 22.459 15.773 23.674 13.668 0.148-0.255-22.557-15.042-22.172-15.708 0.909-1.575 23.321 15.681 24.281 14.018 0.996-1.725-23.668-14.13-22.572-16.029 1.233-2.135 23.885 17.042 25.293 14.603 0.233-0.403-24.066-15.449-23.494-16.44 0.181-0.313 25.649 17.319 26.736 15.436 0.839-1.452-24.549-17.257-24.308-17.675 0.125-0.216 29.016 17.993 29.553 17.063 1.042-1.805-27.541-18.114-27.125-18.835 1.582-2.74 31.506 20.655 32.574 18.806 1.238-2.145-30.821-18.385-29.424-20.805 1.358-2.353 34.601 23.291 36.037 20.805 0.858-1.487-33.792-20.714-32.73-22.553 0.735-1.274 38.845 22.93 39.063 22.553 0.867-1.501-35.795-23.5-35.491-24.026 0.792-1.373 40.614 25.763 41.617 24.027 1.288-2.231-39.872-21.898-38.019-25.107 1.638-2.838 43.17 25.657 43.488 25.107 0.502-0.869-40.295-24.694-39.538-26.005 1.741-3.015 44.897 26.261 45.044 26.006 1.848-3.202-41.406-24.63-40.22-26.685 1.655-2.866 45.087 28.649 46.221 26.685 1.065-1.845-43.101-23.096-40.872-26.955 0.495-0.858 45.24 29.464 46.688 26.956 1.437-2.488-40.202-26.841-40.136-26.956 1.527-2.645 45.731 28.616 46.69 26.956 2.327-4.031-43.635-22.997-41.349-26.956 1.499-2.596 45.018 29.853 46.69 26.956 1.542-2.67-42.075-25.693-41.346-26.956 1.229-2.128 46.198 27.813 46.692 26.957 0.496-0.859-42.44-23.526-40.459-26.957 0.482-0.834 45.031 29.836 46.693 26.958 1.327-2.3-41.251-26.668-41.084-26.958 0.701-1.215 44.424 30.889 46.693 26.958 0.405-0.701-41.749-26.955-41.747-26.958 2.098-3.633 45.668 28.736 46.695 26.958 1.994-3.454-43.395-24.03-41.704-26.959 2.567-4.447 44.066 31.513 46.694 26.96 0.563-0.975-41.21-26.082-40.703-26.96 2.49-4.313 46.418 27.441 46.696 26.96 0.021-0.036-42.238-23.39-40.177-26.96 0.001-0.002 46.635 27.069 46.697 26.961 0.833-1.443-42.437-23.435-40.401-26.961 1.472-2.551 44.908 30.061 46.699 26.961 2.207-3.823-40.794-25.988-40.232-26.961 1.236-2.141 44.279 31.154 46.699 26.962 2.47-4.276-42.134-25.989-41.572-26.962 0.388-0.672 44.744 30.35 46.7 26.962 0.833-1.443-42.132-25.079-41.045-26.962 2.649-4.588 45.967 28.235 46.701 26.963 1.83-3.17-40.907-26.956-40.903-26.963 2.644-4.581 44.985 29.938 46.702 26.963 1.504-2.605-40.372-26.945-40.362-26.963 1.891-3.274 45.129 29.691 46.703 26.964 0.635-1.099-41.77-24.851-40.55-26.965 0.397-0.688 46.603 27.14 46.704 26.965 1.608-2.784-42.625-24.735-41.338-26.964 0.72-1.248 45.791 28.548 46.705 26.965 2.405-4.166-41.29-24.849-40.068-26.966 2.073-3.591 46.41 27.478 46.706 26.966 0.476-0.825-41.673-24.21-40.081-26.966 2.496-4.324 46.229 27.795 46.707 26.967 0.858-1.487-43.372-23.07-41.122-26.967 2.012-3.485 46.33 27.621 46.708 26.967 0.646-1.12-43.666-23.964-41.932-26.967 1.285-2.226 46.226 27.803 46.708 26.968 2.486-4.306-43.732-23.895-41.958-26.968 0.28-0.485 44.61 30.605 46.71 26.968 0.915-1.585-41.963-24.269-40.406-26.968 2.524-4.371 46.645 27.081 46.711 26.968 1.404-2.432-40.969-26.534-40.718-26.968 0.428-0.74 45.396 29.246 46.711 26.969 0.597-1.034-42.739-23.049-40.476-26.969 2.423-4.196 44.812 30.261 46.713 26.97 0.35-0.608-41.546-25.582-40.744-26.97 0.497-0.862 45.171 29.641 46.713 26.97 0.194-0.336-42.013-25.103-40.934-26.97 1.154-1.999 45.73 28.674 46.714 26.97 1.097-1.901-43.095-23.473-41.075-26.97 2.497-4.325 46.219 27.829 46.714 26.971 1.163-2.014-44.228-23.126-42.007-26.971 0.433-0.751 45.4 29.249 46.715 26.971 0.488-0.844-42.914-25.04-41.798-26.972 0.148-0.257 46.044 28.137 46.716 26.972 0.057-0.098-42.794-25.048-41.684-26.972 1.466-2.538 44.553 30.722 46.718 26.973 2.007-3.478-43.062-23.305-40.945-26.973 1.003-1.737 44.894 30.133 46.718 26.973 1.879-3.254-41.392-25.072-40.295-26.973 0.357-0.617 44.182 31.369 46.72 26.974 1.835-3.178-41.5-26.972-41.499-26.974 0.192-0.333 44.254 31.247 46.721 26.974 1.869-3.237-42.517-24.995-41.375-26.974 0.084-0.145 44.469 30.876 46.722 26.975 1.552-2.689-41.67-24.222-40.081-26.975 1.732-3 46.045 28.149 46.723 26.975 1.821-3.154-41.122-26.094-40.613-26.975 0.541-0.938 46.68 27.052 46.724 26.976 1.597-2.765-42.474-24.669-41.142-26.977 2.066-3.578 45.116 29.764 46.725 26.977 0.352-0.609-42.256-25.417-41.355-26.976 2.515-4.357 46.115 28.033 46.725 26.977 1.148-1.989-41.007-26.026-40.457-26.978 2.284-3.956 46.085 28.088 46.726 26.978 1.679-2.909-42.098-26.151-41.62-26.978 1.593-2.76 44.171 31.406 46.727 26.979 1.03-1.786-43.387-23.608-41.441-26.979 1.093-1.891 45.235 29.565 46.728 26.979 2.021-3.5-43.801-22.772-41.371-26.979 0.525-0.909 45.379 29.318 46.729 26.98 0.952-1.65-43.231-24.229-41.643-26.98 0.932-1.614 45.844 28.514 46.73 26.98 0.352-0.61-42.655-24.215-41.059-26.98 2.36-4.086 46.547 27.299 46.731 26.98 2.028-3.511-42.952-23.626-41.016-26.98 0.018-0.031 45.491 29.131 46.732 26.981 1.647-2.852-42.063-24.006-40.346-26.981 0.273-0.473 39.586 24.708 40.388 23.318 0.952-1.649-35.258-21.012-33.927-23.318 1.369-2.371 32.125 22.712 33.928 19.588 1.557-2.698-28.312-19.241-28.112-19.588 0.536-0.928 27.726 16.9 28.112 16.23 1.206-2.09-24.912-16.929-24.664-17.36 0.159-0.275 24.51 14.583 24.697 14.26 1.313-2.275-24.845-15.143-23.599-17.303 0.054-0.093 23.68 14.275 23.941 13.823 0.722-1.251-23.544-15.198-22.693-16.672 0.442-0.766 22.363 15.697 23.569 13.607 0.622-1.076-23.055-14.875-22.245-16.278 0.419-0.727 22.235 15.677 23.464 13.547 1.199-2.076-22.517-15.115-22.126-15.792 0.109-0.188 22.185 15.733 23.451 13.539 0.717-1.241-22.349-15.168-21.911-15.926 0.235-0.408 22.553 15.427 23.595 13.623 0.207-0.359-22.633-14.696-22.091-15.635 0.527-0.915 22.893 15.358 23.819 13.752 1.209-2.092-22.091-15.845-22.012-15.981 0.372-0.645 23.784 14.869 24.276 14.017 0.32-0.554-23.6-13.999-22.44-16.006 0.285-0.494 24.017 15.743 24.83 14.336 0.298-0.518-23.434-15.109-22.582-16.584 1.475-2.556 24.45 17.206 25.788 14.888 1.366-2.365-24.418-15.427-23.702-16.67 1.447-2.504 26.683 15.955 26.921 15.543 0.904-1.565-24.768-16.997-24.441-17.565 1.009-1.747 29.057 17.186 29.235 16.878 0.893-1.548-27.498-16.923-26.457-18.727 0.722-1.25 31.853 19.738 32.436 18.727 0.04-0.069-30.436-18.671-29.317-20.609 0.144-0.249 34.983 21.842 35.695 20.609 1.4-2.425-34.4-19.493-32.906-22.081 1.896-3.283 38.02 22.473 38.247 22.081 0.652-1.131-36.429-21.232-35.182-23.391 2.277-3.944 40.201 23.934 40.515 23.391 1.892-3.278-37.84-23.95-37.503-24.534 1.857-3.217 41.305 26.594 42.495 24.534 2.281-3.951-40.204-23.669-39.143-25.507 2.046-3.544 41.816 29.6 44.179 25.507 1.679-2.908-39.953-25.519-39.416-26.45 1.778-3.079 43.816 29.909 45.813 26.45 2.196-3.804-42.11-23.288-40.006-26.932 0.755-1.308 44.591 30.49 46.646 26.931 1.009-1.746-41.469-24.654-40.144-26.949 2.322-4.021 46.185 27.807 46.68 26.95 0.648-1.123-42.931-24.79-41.684-26.951 2.367-4.099 44.629 30.502 46.679 26.95 2.05-3.55-43.175-24.716-41.885-26.95 1.659-2.874 45.878 28.338 46.679 26.95 2.046-3.543-42.835-23.606-40.904-26.95 2.333-4.041 44.243 31.171 46.68 26.95 0.051-0.09-42.069-23.504-40.079-26.95 2.259-3.914 46.644 27.011 46.679 26.95 1.644-2.847-40.746-26.513-40.493-26.95 2.547-4.412 44.332 31.016 46.68 26.95 0.946-1.639-42.803-23.056-40.554-26.95 0.514-0.892 44.69 30.394 46.679 26.95 0.545-0.944-42.49-26.038-41.963-26.95 0.582-1.01 45.036 29.797 46.679 26.95 1.39-2.406-43.859-23.734-42.001-26.95 0.812-1.408 44.135 31.356 46.679 26.95 0.85-1.472-41.048-26.478-40.775-26.95 0.949-1.643 44.142 31.346 46.68 26.95 2.114-3.661-43.961-22.784-41.556-26.95 1.603-2.777 46.559 27.158 46.68 26.95 1.63-2.824-43.055-23.331-40.965-26.951 2-3.465 45.378 29.205 46.679 26.951 0.556-0.963-41.459-26.39-41.135-26.951 0.575-0.997 44.095 31.428 46.679 26.951 0.58-1.004-41.485-24.838-40.265-26.951 1.029-1.783 45.296 29.348 46.68 26.951 2.269-3.931-42.88-24.664-41.56-26.951 0.29-0.502 44.089 31.44 46.681 26.951 2.16-3.743-41.597-25.728-40.89-26.951 2.196-3.805 44.052 31.504 46.681 26.951 1.374-2.38-41.879-25.464-41.02-26.951 1.473-2.553 44.951 29.945 46.68 26.95 1.162-2.012-41.295-24.743-40.02-26.95 2.383-4.129 45.616 28.793 46.68 26.95 0.713-1.235-42.05-26.25-41.646-26.951 2.603-4.507 45.581 28.856 46.681 26.951 2.381-4.123-42.318-24.352-40.817-26.951 1.928-3.34 46.39 27.453 46.68 26.951 0.516-0.893-41.904-25.233-40.912-26.951 2.69-4.659 45.705 28.64 46.68 26.951 0.165-0.285-41.842-25.125-40.788-26.951 1.908-3.304 45.145 29.612 46.681 26.951 1.846-3.197-43.745-23.453-41.725-26.951 2.005-3.473 44.308 30.991 46.651 26.934 1.614-2.797-42.034-24.839-40.824-26.934 1.707-2.956 43.552 28.989 45.217 26.106 2.169-3.757-40.335-23.796-39.001-26.106 1.345-2.329 41.728 25.349 42.272 24.406 2.033-3.522-36.868-23.322-36.242-24.406 1.873-3.244 37.687 23.765 38.556 22.26 1.209-2.093-33.343-20.265-32.191-22.26 1.55-2.685 32.636 21.943 33.978 19.617 0.391-0.677-29.643-16.91-28.08-19.618 0.861-1.49 28.793 17.459 29.154 16.832 0.841-1.456-23.851-14.57-22.546-16.832 0.208-0.36 22.445 14.236 22.999 13.278 0.999-1.73-17.464-11.507-16.441-13.278 0.608-1.053 15.362 9.539 15.652 9.037 0.239-0.415-9.079-7.637-8.661-8.362 0.217-0.375 4.99 3.317 5.179 2.99" stroke="#fff" stroke-linecap="round" stroke-width="1.417" fill="none"/>
</g>
<g id="g218" transform="translate(775.5 2003.9)">
<path id="path220" stroke-linejoin="round" d="m0 0c0.005-0.009 0.699 0.423 0.708 0.408 0.06-0.102-0.846-3.773-0.7-4.025 0.087-0.152 6.895 4.156 6.971 4.025 0.13-0.225-7.142-6.881-6.965-7.185 0.105-0.182 12.421 7.23 12.446 7.186 0.769-1.332-13.056-8.897-12.44-9.962 0.404-0.702 16.966 10.458 17.253 9.961 0.671-1.162-17.408-12.626-17.248-12.903 0.001-0.001 21.37 14.599 22.349 12.903 0.182-0.315-23.59-14.554-22.342-16.717 1.541-2.669 27.813 18.697 28.956 16.717 0.107-0.184-29.871-18.195-28.949-19.791 0.903-1.566 33.21 21.642 34.279 19.791 0.491-0.85-34.707-22.658-34.272-23.411 0.411-0.713 38.58 26.822 40.55 23.411 1.471-2.55-40.971-26.431-40.543-27.173 0.744-1.289 45.782 29.393 47.064 27.173 1.056-1.829-48.419-27.749-47.058-30.106 2.008-3.479 52.131 30.131 52.145 30.106" stroke="#fff" stroke-linecap="round" stroke-width="1.417" fill="none"/>
</g>
<g id="g222" transform="translate(599.95 1946)">
<path id="path224" stroke-linejoin="round" d="m0 0c0.734-1.271 47.139 29.599 48.17 27.812 1.552-2.687-42.801-23.335-40.744-26.899 1.367-2.368 44.917 29.805 46.595 26.9 0.382-0.663-42.668-24.452-41.254-26.9 0.807-1.398 44.627 30.317 46.597 26.903 1.749-3.029-40.598-26.178-40.18-26.903 0.106-0.184 44.721 30.165 46.603 26.905 1.342-2.325-41.456-25.92-40.888-26.906 2.458-4.257 44.096 31.259 46.607 26.909 0.132-0.227-43.315-22.929-41.017-26.908 2.432-4.214 45.258 29.253 46.611 26.91 0.895-1.551-43.34-23.895-41.599-26.911 0.547-0.947 44.117 31.238 46.615 26.913 1.064-1.843-42.213-24.465-40.8-26.913 1.856-3.213 44.728 30.192 46.62 26.915 0.915-1.585-41.077-25.961-40.526-26.915 0.981-1.699 44.379 30.804 46.623 26.918 1.3-2.252-42.349-23.618-40.444-26.918 1.777-3.078 46.239 27.592 46.631 26.92 0.24-0.424-42.446-24.33-40.95-26.92 0.512-0.888 45.84 28.292 46.63 26.922 2-3.455-41.489-25.528-40.684-26.922 0.626-1.084 44.474 30.664 46.634 26.925 1.89-3.277-42.796-23.768-40.973-26.925 1.329-2.304 46.123 27.813 46.643 26.927 0.79-1.378-42.346-25.591-41.574-26.928 1.555-2.695 46.014 28.018 46.644 26.93 0.31-0.545-41.059-25.806-40.41-26.93 2.353-4.076 44.98 29.826 46.65 26.932 0.54-0.934-41.618-25.764-40.944-26.932 1.158-2.006 45.834 28.356 46.654 26.935 0.42-0.737-42.928-25.268-41.965-26.935 2.36-4.087 44.045 31.465 46.655 26.937 1.37-2.365-41.219-25.296-40.272-26.937 2.107-3.649 46.582 27.075 46.66 26.939 1.807-3.13-41.667-24.769-40.414-26.939 0.476-0.825 44.727 30.296 46.664 26.942 0.147-0.255-43.649-23.54-41.685-26.942 1.461-2.529 44.318 31.014 46.668 26.943 1.999-3.461-43.282-23.619-41.362-26.943 2.201-3.814 44.872 30.062 46.671 26.945 0.594-1.028-42.458-25.428-41.582-26.945 1.986-3.441 44.747 30.288 46.676 26.948 2.275-3.942-42.171-23.946-40.438-26.948 1.693-2.932 46.632 27.033 46.68 26.95 1.516-2.625-42.648-24.929-41.481-26.95 5.15-8.92 95.375 64.669 99.534 57.465 2.924-5.065-95.14-54.316-93.321-57.466 3.838-6.649 97.126 61.635 99.533 57.466 2.154-3.729-96.234-52.33-93.268-57.466 0.914-1.583 96.84 62.133 99.534 57.466 3.806-6.591-93.576-56.53-93.036-57.466 1.898-3.287 50.779 30.996 51.505 29.737 2.638-4.569-48.529-25.316-45.976-29.737 2.309-4 43.96 30.05 45.982 26.548 2.06-3.574-39.72-25.995-39.4-26.548 1.59-2.755 38.89 23.639 39.4 22.748 0.47-0.819-36.03-19.412-34.11-22.748 0.45-0.781 33.09 21.477 34.12 19.695 0.15-0.266-28.74-19.567-28.66-19.695 1.31-2.274 27.68 18.258 28.66 16.549 0.54-0.932-23.38-15.276-22.64-16.549 0.574-0.994 21.804 14.547 22.651 13.077 0.831-1.439-17.82-11.509-16.914-13.077 0.309-0.535 16.5 10.498 16.921 9.769 0.081-0.141-11.447-9.237-11.139-9.77 0.01-0.018 11.137 6.45 11.145 6.436 0.12-0.208-5.77-5.83-5.419-6.436 0.215-0.373 5.329 3.3 5.426 3.133 0.149-0.259-0.74-3.068-0.703-3.133 0.039-0.067 0.693 0.435 0.708 0.409" stroke="#fff" stroke-linecap="round" stroke-width="1.417" fill="none"/>
</g>
<g id="g226" transform="translate(803.16 1977.4)">
<path id="path228" stroke-linejoin="round" d="m0 0c1.089-1.887 45.247 29.422 46.675 26.948 2.415-4.184-43.654-22.787-41.252-26.947 2.151-3.727 46.513 27.224 46.673 26.947 0.126-0.219-43.44-23.536-41.471-26.946 1.223-2.119 45.513 28.951 46.67 26.945 1.176-2.036-42.046-24.516-40.645-26.944 1.81-3.135 46.369 27.464 46.668 26.944 1.151-1.992-41.104-25.612-40.336-26.943 2.226-3.855 46.375 27.448 46.666 26.943 2.359-4.085-42.463-22.846-40.1-26.941 2.388-4.135 45.797 28.442 46.664 26.941 1.651-2.859-44.161-23.138-41.966-26.94 2.558-4.431 45.811 28.415 46.662 26.94 1.563-2.708-43.642-22.893-41.306-26.938 0.546-0.947 45.139 29.572 46.659 26.938 0.366-0.634-41.674-25.759-40.993-26.937 1.225-2.123 46.131 27.848 46.657 26.937 1.711-2.964-41.651-26.588-41.45-26.936 1.76-3.048 45.892 28.26 46.656 26.936 1.769-3.065-41.795-25.346-40.878-26.935 2.031-3.516 46.537 27.133 46.657 26.935 0.22-0.386-40.838-26.559-40.622-26.934 2.177-3.77 45.832 28.361 46.652 26.934 0.37-0.642-44.044-23.021-41.785-26.933 1.208-2.092 45.116 29.59 46.649 26.933 0.203-0.352-41.725-25.575-40.942-26.932 1.02-1.765 45.505 28.91 46.647 26.932 0.632-1.093-41.055-25.788-40.395-26.93 1.009-1.748 45.328 29.209 46.644 26.93 0.38-0.657-42.923-25.075-41.852-26.929 2.344-4.061 44.412 30.787 46.642 26.929 0.79-1.361-42.617-23.811-40.818-26.928 0.878-1.52 45.488 28.932 46.638 26.928 2.05-3.548-41.751-25.496-40.926-26.926 1.927-3.336 44.33 30.923 46.638 26.925 0.578-1-43.547-24.104-41.919-26.925 1.375-2.381 44.371 30.85 46.636 26.925 1.516-2.624-43.129-24.367-41.653-26.924 2.233-3.868 45.858 28.269 46.634 26.924 1.673-2.896-41.973-24.936-40.826-26.923 2.545-4.407 45.309 29.215 46.632 26.923 1.055-1.827-41.07-25.648-40.335-26.922 2.124-3.678 44.902 29.914 46.629 26.922 1.964-3.402-42.003-23.8-40.202-26.92 1.724-2.986 45.675 28.57 46.627 26.92 0.055-0.094-40.867-26.906-40.86-26.919 1.645-2.849 45.521 28.831 46.625 26.919 2.395-4.148-43.275-23.763-41.453-26.918 2.688-4.657 44.151 31.199 46.623 26.918 2.432-4.213-42.196-26.154-41.755-26.916 1.093-1.892 44.474 30.635 46.621 26.916 2.32-4.026-41.13-26.032-40.62-26.915 1.76-3.048 46.213 27.616 46.618 26.915 2.151-3.726-42.379-26.001-41.853-26.914 2.006-3.473 46.366 27.349 46.617 26.914 0.376-0.65-41.467-26.818-41.412-26.913 1.188-2.058 45.588 28.693 46.615 26.913 1.006-1.743-41.868-24.869-40.689-26.912 1.07-1.853 45.431 28.958 46.612 26.912 1.248-2.162-41.384-24.881-40.212-26.911 1.816-3.144 46.318 27.415 46.61 26.91 0.011-0.018-44.192-22.983-41.926-26.909 2.549-4.415 44.143 31.179 46.608 26.909 2.455-4.252-42.441-25.487-41.621-26.907 2.011-3.483 46.543 27.018 46.606 26.908 0.795-1.378-41.5-25.883-40.909-26.907 1.719-2.977 44.109 31.228 46.604 26.906 1.753-3.035-41.272-25.159-40.264-26.905 1.972-3.415 45.673 28.513 46.601 26.905 0.904-1.565-43.45-22.836-41.101-26.903 1.215-2.106 46.141 27.696 46.599 26.903 0.279-0.483-43.129-24.231-41.587-26.903 1.107-1.916 44.979 29.708 46.598 26.903 2.385-4.131-41.366-25.961-40.823-26.901 2.048-3.548 45.375 29.015 46.595 26.901 0.646-1.119-43.439-22.68-41.003-26.9 1.193-2.066 45.664 28.511 46.593 26.9 0.577-1-42.772-25.248-41.819-26.899 2.343-4.058 45.004 29.649 46.591 26.899 1.637-2.834-41.448-24.644-40.147-26.898 1.585-2.745 44.586 29.477 46.203 26.676 1.694-2.934-40.877-25.949-40.458-26.675 0.278-0.482 42.815 30.485 45.311 26.161 1.812-3.139-39.98-24.324-38.921-26.159 0.875-1.515 43.201 26.47 43.862 25.324 0.078-0.133-39.965-22.288-38.213-25.323 2.111-3.655 41.202 26.225 42.257 24.397 0.319-0.551-37.493-22.674-36.499-24.395 0.749-1.298 38.816 25.741 40.258 23.243 0.715-1.238-34.691-22.608-34.325-23.242 2.047-3.546 36.226 24.786 37.901 21.883 0.037-0.065-32.643-20.111-31.62-21.882 0.127-0.221 34.36 21.737 35.182 20.312 0.194-0.334-31.657-17.644-30.112-20.321 0.772-1.337 32.67 19.124 32.784 18.928 0.312-0.542-28.267-18.084-27.62-19.204 0.252-0.439 29.144 19.718 30.397 17.549 1.437-2.489-26.74-16.181-25.491-18.344 0.721-1.249 26.904 19.058 28.43 16.415 0.835-1.447-25.401-16.795-25.135-17.257 1.468-2.542 26.39 16.987 27.148 15.674 0.37-0.64-24.849-14.783-23.559-17.016 1.381-2.393 24.959 16.789 25.989 15.004 0.365-0.632-23.944-14.662-22.821-16.607 0.948-1.641 24.864 14.833 25.07 14.475 0.066-0.114-22.264-16.074-22.042-16.458 0.803-1.391 23.531 15.348 24.294 14.026 0.099-0.171-22.857-14.687-22.266-15.71 0.399-0.69 23.101 15.226 23.918 13.81 0.762-1.319-22.681-14.519-21.984-15.727 0.084-0.145 22.97 14.664 23.577 13.613 1.192-2.064-22.857-13.817-21.772-15.697 1.065-1.844 23.145 13.817 23.342 13.476 0.688-1.191-22.799-14.134-21.906-15.681 0.326-0.563 23.176 13.631 23.284 13.444 0.543-0.94-23.315-13.429-22.127-15.487 1.311-2.271 22.612 14.616 23.287 13.445 0.491-0.849-23.149-14.103-22.252-15.656 0.614-1.063 22.792 14.494 23.371 13.493 0.249-0.432-23.585-14.383-22.361-16.505 0.406-0.703 23.484 13.913 23.637 13.646 0.496-0.859-23.473-15.875-22.919-16.834 1.239-2.147 23.957 14.032 24.044 13.882 0.247-0.428-24.08-16.576-23.645-17.329 0.54-0.935 24.285 14.941 24.684 14.251 1.095-1.898-25.141-16.874-24.662-17.704 0.188-0.325 24.154 16.834 25.405 14.668 0.934-1.618-26.502-17.027-25.787-18.265 0.45-0.78 25.068 17.647 26.443 15.266 1.442-2.498-29.037-16.393-27.385-19.253 0.003-0.006 27.806 16.111 27.831 16.068 0.285-0.494-31.14-17.398-29.485-20.265 0.868-1.502 28.483 19.432 29.777 17.192 0.914-1.583-34.88-20.769-33.574-23.031 1.867-3.234 33.694 19.557 33.739 19.479" stroke="#fff" stroke-linecap="round" stroke-width="1.417" fill="none"/>
</g>
<g id="g230" transform="translate(579.12 1965.1)">
<path id="path232" stroke-linejoin="round" d="m0 0c0.28-0.486 8.562 5.762 8.917 5.148 0.328-0.57-16.248-12.015-16.139-12.202 0.133-0.23 25.247 16.292 25.99 15.005 1.682-2.912-29.462-19.855-29.429-19.912 1.25-2.165 35.343 21.008 35.603 20.556 0.549-0.95-40.171-21.309-37.949-25.159 0.77-1.333 42.463 27.57 43.785 25.279 1.074-1.86-46.271-27.085-45.195-28.948 2.138-3.705 49.323 30.367 50.142 28.949 2.732-4.733-51.254-32.646-51.192-32.753 2.845-4.927 56.271 33.552 56.732 32.754 3.286-5.693-57.67-36.522-57.472-36.864 2.566-4.445 61.256 41.361 63.852 36.865 3.144-5.445-65.315-37.78-64.123-39.845 2.854-4.945 67.319 42.784 69.016 39.846 3.753-6.501-70.453-40.612-69.116-42.927 2.341-4.055 71.96 47.07 74.352 42.928 3.716-6.438-75.828-43.553-74.171-46.422 2.999-5.196 78.441 49.826 80.406 46.423 1.627-2.818-80.611-48.419-79.956-49.553 0.544-0.941 28.358 19.508 29.715 17.157 0.648-1.122-30.563-17.709-29.061-20.311 0.583-1.01 25.083 17.321 26.313 15.191 0.824-1.428-25.607-18.021-25.492-18.221 0.577-1 23.459 16.684 24.819 14.328 1.239-2.145-24.157-16.497-23.676-17.33 0.247-0.427 23 15.234 23.847 13.768 0.546-0.947-22.913-15.951-22.526-16.622 1.182-2.046 22.883 14.324 23.365 13.49 0.116-0.2-22.781-14.705-21.984-16.086 0.418-0.724 22.817 14.259 23.288 13.445 0.634-1.099-22.04-15.319-21.925-15.518 1.053-1.823 22.286 15.652 23.492 13.563 0.147-0.254-22.396-14.956-22.014-15.618 0.901-1.561 23.126 15.551 24.078 13.902 0.988-1.712-23.478-14.04-22.391-15.924 1.224-2.119 23.694 16.904 25.09 14.486 0.232-0.401-23.881-15.352-23.313-16.336 0.179-0.312 25.492 17.212 26.572 15.341 0.834-1.444-24.408-17.179-24.168-17.595 0.125-0.215 28.957 17.957 29.493 17.029 1.041-1.803-27.505-18.094-27.089-18.815 1.582-2.74 31.52 20.664 32.587 18.815 1.24-2.147-30.856-18.402-29.457-20.826 1.36-2.355 34.633 23.314 36.07 20.826 0.859-1.49-33.836-20.737-32.773-22.578 0.736-1.275 38.887 22.955 39.105 22.577 0.868-1.504-35.864-23.538-35.559-24.066 0.793-1.375 40.68 25.804 41.683 24.066 1.29-2.234-39.929-21.925-38.073-25.139 1.64-2.841 43.224 25.689 43.542 25.139 0.502-0.87-40.313-24.704-39.556-26.016 1.741-3.016 44.913 26.271 45.06 26.016 1.846-3.198-41.35-24.601-40.165-26.654 1.653-2.862 45.033 28.616 46.165 26.654 1.063-1.84-42.98-23.041-40.759-26.89 0.495-0.855 45.13 29.392 46.576 26.89 1.432-2.482-40.089-26.777-40.023-26.89 1.523-2.639 45.618 28.545 46.574 26.89 2.322-4.021-43.513-22.941-41.233-26.89 1.495-2.591 44.906 29.778 46.574 26.89 1.538-2.664-41.957-25.631-41.229-26.89 1.225-2.123 46.081 27.743 46.574 26.889 0.495-0.856-42.317-23.467-40.342-26.889 0.481-0.832 44.918 29.76 46.575 26.89 1.324-2.293-41.133-26.601-40.966-26.891 0.699-1.211 44.311 30.811 46.575 26.89 0.404-0.7-41.631-26.886-41.629-26.89 2.092-3.623 45.552 28.663 46.576 26.891 1.988-3.446-43.271-23.971-41.586-26.891 2.562-4.436 43.953 31.431 46.575 26.89 0.562-0.972-41.088-26.015-40.583-26.89 2.484-4.303 46.298 27.369 46.574 26.89 0.021-0.035-42.11-23.33-40.055-26.89 0.001-0.002 46.512 26.998 46.575 26.89 0.83-1.438-42.309-23.374-40.279-26.89 1.468-2.544 44.79 29.981 46.574 26.89 2.202-3.812-40.667-25.92-40.107-26.89 1.233-2.136 44.162 31.071 46.575 26.89 2.462-4.264-42.008-25.92-41.448-26.89 0.387-0.671 44.624 30.269 46.575 26.89 0.831-1.439-42.003-25.013-40.919-26.89 2.641-4.576 45.842 28.159 46.574 26.89 1.825-3.16-40.781-26.884-40.777-26.89 2.637-4.568 44.862 29.856 46.575 26.89 1.5-2.598-40.245-26.872-40.235-26.89 1.885-3.265 45.005 29.609 46.575 26.89 0.633-1.097-41.638-24.784-40.422-26.89 0.396-0.686 46.474 27.064 46.575 26.89 1.603-2.777-42.493-24.668-41.21-26.891 0.719-1.244 45.664 28.469 46.576 26.89 2.397-4.152-41.156-24.78-39.938-26.89 2.068-3.581 46.28 27.4 46.575 26.89 0.475-0.823-41.537-24.142-39.95-26.89 2.49-4.313 46.098 27.716 46.575 26.891 0.855-1.483-43.233-23.007-40.99-26.891 2.006-3.475 46.198 27.543 46.575 26.89 0.644-1.117-43.528-23.897-41.799-26.89 1.281-2.22 46.094 27.722 46.574 26.89 2.478-4.292-43.593-23.826-41.824-26.89 0.279-0.484 44.481 30.516 46.575 26.89 0.912-1.58-41.824-24.2-40.271-26.89 2.516-4.358 46.509 27.003 46.575 26.89 1.399-2.424-40.832-26.457-40.582-26.89 0.427-0.739 45.264 29.16 46.575 26.89 0.595-1.031-42.596-22.983-40.34-26.89 2.415-4.184 44.68 30.171 46.574 26.89 0.35-0.606-41.405-25.506-40.606-26.89 0.497-0.859 45.038 29.553 46.575 26.89 0.194-0.335-41.87-25.029-40.795-26.89 1.15-1.993 45.594 28.588 46.575 26.89 1.093-1.895-42.949-23.405-40.937-26.89 2.49-4.312 46.081 27.746 46.575 26.89 1.159-2.008-44.08-23.058-41.868-26.89 0.433-0.749 45.264 29.161 46.575 26.89 0.486-0.842-42.769-24.966-41.658-26.89 0.148-0.257 45.905 28.05 46.575 26.89 0.057-0.099-42.648-24.974-41.542-26.891 1.461-2.53 44.417 30.628 46.575 26.89 2-3.465-42.912-23.235-40.802-26.89 1-1.732 44.756 30.04 46.575 26.89 1.872-3.243-41.245-24.996-40.152-26.89 0.356-0.616 44.045 31.272 46.575 26.89 1.829-3.168-41.355-26.888-41.354-26.89 0.192-0.331 44.115 31.149 46.575 26.89 1.863-3.227-42.367-24.918-41.229-26.89 0.084-0.144 44.329 30.779 46.575 26.89 1.547-2.679-41.517-24.147-39.933-26.89 1.726-2.991 45.898 28.06 46.574 26.89 1.814-3.143-40.972-26.012-40.465-26.89 0.54-0.935 46.532 26.965 46.576 26.89 1.59-2.756-42.322-24.591-40.994-26.891 2.059-3.566 44.972 29.669 46.575 26.891 0.351-0.608-42.102-25.337-41.205-26.89 2.507-4.343 45.967 27.942 46.575 26.89 1.144-1.982-40.855-25.943-40.307-26.891 2.277-3.944 45.936 27.997 46.575 26.89 1.673-2.899-41.945-26.066-41.469-26.89 1.588-2.752 44.026 31.304 46.574 26.891 1.028-1.78-43.227-23.532-41.288-26.891 1.089-1.885 45.087 29.468 46.575 26.891 2.014-3.488-43.638-22.699-41.218-26.891 0.523-0.906 45.229 29.221 46.575 26.89 0.949-1.643-43.071-24.149-41.489-26.89 0.929-1.609 45.693 28.419 46.575 26.89 0.351-0.608-42.494-24.135-40.904-26.89 2.352-4.072 46.392 27.208 46.576 26.89 2.02-3.499-42.789-23.548-40.86-26.89 0.018-0.031 45.337 29.033 46.574 26.89 1.641-2.841-41.899-23.926-40.188-26.89 0.314-0.545 45.649 28.492 46.574 26.89 1.117-1.934-41.676-24.185-40.114-26.89 1.879-3.255 44.1 31.178 46.575 26.89 2.22-3.845-41.044-26.396-40.759-26.89 0.888-1.538 45.934 28 46.575 26.89 1.967-3.407-41.577-26.19-41.172-26.89 0.301-0.521 46.223 27.499 46.575 26.89 2.171-3.76-42.266-23.321-40.205-26.89 0.105-0.182 46.067 27.77 46.575 26.89 1.245-2.156-41.859-24.35-40.392-26.891 0.873-1.512 44.191 31.02 46.575 26.891 1.098-1.903-42.057-24.411-40.625-26.891 0.832-1.442 44.134 31.117 46.575 26.89 2.175-3.767-42.057-25.661-41.348-26.89 0.216-0.373 44.06 31.248 46.575 26.89 1.296-2.243-41.692-25.521-40.901-26.89 0.464-0.805 44.518 30.452 46.574 26.89 0.38-0.656-42.577-25.172-41.585-26.89 1.032-1.787 44.761 30.031 46.574 26.89 2.175-3.765-41.048-26.646-40.907-26.89 0.714-1.237 45.63 28.526 46.574 26.89 0.572-0.989-43.366-23.301-41.293-26.89 0.535-0.928 45.05 29.53 46.575 26.89 0.518-0.897-41.909-24.333-40.433-26.89 2.664-4.615 44.158 31.076 46.575 26.89 2.327-4.03-42.625-24.774-41.403-26.89 2.502-4.334 46.163 27.604 46.575 26.89 1.461-2.53-41.122-25.971-40.592-26.89 1.607-2.784 46.292 27.381 46.575 26.89 1.342-2.325-42.161-24.18-40.596-26.89 1.037-1.795 45.738 28.34 46.576 26.89 0.053-0.093-41.707-24.276-40.198-26.89 0.188-0.325 45.646 28.499 46.575 26.89 1.74-3.013-43.091-23.675-41.234-26.891 2.308-3.998 46.298 27.369 46.574 26.891 0.761-1.318-42.694-24.374-41.241-26.891 2.617-4.533 46.214 27.516 46.575 26.891 2.091-3.623-41.956-26.245-41.583-26.891 2.035-3.525 45.271 29.149 46.575 26.891 2.416-4.185-42.663-24.945-41.54-26.891 2.158-3.736 44.085 31.205 46.576 26.89 1.71-2.962-40.726-25.942-40.178-26.89 1.807-3.13 44.544 30.407 46.575 26.89 2.192-3.796-42.035-23.252-39.935-26.89 0.754-1.306 44.524 30.444 46.575 26.89 1.006-1.742-41.362-24.6-40.04-26.89 2.316-4.012 46.081 27.746 46.575 26.89 0.646-1.119-42.824-24.735-41.579-26.89 2.361-4.09 44.529 30.433 46.575 26.89 2.045-3.542-43.068-24.661-41.781-26.89 1.656-2.868 45.776 28.275 46.575 26.89 2.041-3.534-42.726-23.554-40.8-26.89 2.359-4.086 44.723 31.509 47.187 27.243 0.052-0.091-42.6-23.756-40.586-27.243 2.625-4.548 54.199 31.385 54.24 31.315 1.938-3.357-48.352-30.8-48.054-31.315 4.923-8.527 85.664 59.934 90.201 52.077 1.922-3.329-88.642-44.167-84.075-52.078 0.921-1.595 79.978 54.394 83.536 48.23 1.011-1.749-79.796-46.54-78.82-48.23 0.976-1.691 75.483 49.942 78.238 45.171 2.403-4.162-76.773-39.606-73.56-45.171 1.267-2.195 68.853 48.917 72.822 42.044 1.374-2.381-67.359-41.278-66.917-42.044 1.332-2.306 61.987 44.02 65.551 37.846 3.043-5.271-63.89-31.849-60.428-37.846 2.021-3.5 58.704 34.243 58.856 33.981 2.087-3.615-55.542-29.19-52.867-33.823 2.165-3.751 49.122 31.614 50.531 29.174 0.592-1.027-44.311-27.986-43.966-28.584 0.503-0.871 38.498 27.439 40.755 23.53 0.447-0.776-31.629-19.788-30.686-21.42 0.54-0.936 23.789 15.413 24.516 14.154" stroke="#fff" stroke-linecap="round" stroke-width="1.417" fill="none"/>
</g>
<g id="g234" transform="translate(935 2154.2)">
<path id="path236" stroke-linejoin="round" d="m0 0c0.163-0.282 4.971 3.346 5.177 2.989 0.187-0.324-8.538-7.673-8.476-7.779 0.074-0.129 14.221 9.178 14.64 8.453 0.922-1.597-15.484-11.819-15.466-11.85 0.721-1.249 20.375 12.111 20.525 11.85 0.308-0.532-21.768-12.944-20.524-15.1 0.46-0.795 25.362 16.468 26.152 15.1 0.622-1.077-26.217-16.553-25.594-17.632 1.302-2.256 30.041 18.495 30.539 17.632 1.604-2.778-29.446-20.114-29.41-20.177 1.753-3.036 34.665 20.668 34.948 20.177 1.932-3.346-33.164-22.562-33.049-22.764 1.585-2.744 37.825 25.54 39.428 22.764 1.863-3.227-38.175-23.232-37.469-24.456 1.752-3.035 41.319 26.26 42.36 24.456 2.187-3.788-40.468-24.588-39.689-25.936 1.415-2.451 43.479 28.439 44.924 25.936 2.059-3.567-41.269-25.305-40.351-26.895 1.738-3.011 45.446 28.867 46.585 26.895 0.845-1.465-41.146-26.359-40.806-26.948 0.854-1.48 44.543 30.64 46.675 26.948 0.889-1.54-42.62-23.374-40.556-26.948 1.033-1.791 44.493 30.726 46.675 26.948 1.283-2.222-40.786-26.638-40.607-26.949 1.086-1.88 44.119 31.377 46.676 26.948 2.048-3.548-41.129-25.571-40.334-26.948 0.484-0.837 45.019 29.818 46.676 26.948 0.948-1.642-41.084-25.785-40.412-26.948 2.359-4.087 45.713 28.615 46.676 26.948 0.207-0.359-42.229-24.469-40.798-26.948 0.838-1.452 45.734 28.58 46.676 26.949 1.172-2.031-41.936-26.579-41.722-26.949 2.091-3.621 44.279 31.099 46.676 26.948 0.269-0.466-42.342-25.732-41.64-26.948 1.748-3.027 44.83 30.146 46.675 26.949 1.78-3.083-43.444-23.557-41.486-26.949 2.276-3.942 44.076 31.449 46.676 26.948 0.41-0.699-42.685-25.232-41.694-26.948 0.316-0.547 44.779 30.235 46.676 26.948 1.354-2.345-40.76-26.272-40.369-26.948 0.197-0.341 45.827 28.418 46.676 26.948 1.552-2.689-41.8-25.872-41.178-26.948 2.266-3.925 45.147 29.598 46.676 26.948 1.659-2.873-41.937-23.705-40.064-26.948 1.759-3.047 44.817 30.169 46.677 26.948 1.047-1.814-41.641-24.704-40.346-26.949 0.879-1.522 46.417 27.4 46.677 26.949 0.985-1.706-40.897-26.35-40.552-26.949 0.889-1.539 45.553 28.896 46.677 26.949 1.392-2.411-43.211-23.48-41.208-26.949 1.757-3.046 46.336 27.539 46.676 26.949 0.523-0.904-41.959-25.586-41.171-26.949 1.803-3.124 46.523 27.213 46.676 26.949 1.869-3.237-41.876-24.872-40.676-26.949 1.67-2.895 45.531 28.932 46.676 26.949 1.066-1.845-43.089-23.091-40.861-26.949 0.495-0.858 45.229 29.457 46.677 26.949 1.436-2.488-40.191-26.835-40.125-26.949 1.527-2.645 45.719 28.608 46.677 26.949 2.328-4.031-43.622-22.991-41.336-26.949 1.499-2.596 45.005 29.844 46.677 26.949 1.542-2.67-42.061-25.687-41.332-26.949 1.216-2.108 45.737 27.536 46.226 26.689 0.491-0.85-41.953-23.296-39.993-26.69 0.451-0.781 42.225 27.977 43.783 25.279 1.237-2.142-38.331-25.008-38.174-25.279 0.611-1.059 38.738 26.936 40.717 23.509 0.349-0.605-35.773-23.506-35.771-23.509 1.684-2.917 36.676 23.079 37.5 21.651 1.569-2.717-33.84-19.348-32.51-21.651 1.86-3.223 31.933 22.836 33.838 19.537 0.392-0.68-28.2-18.926-27.847-19.537 1.542-2.671 28.747 16.993 28.918 16.696 0.012-0.021-23.589-14.635-22.399-16.696 0-0.001 22.766 13.215 22.797 13.162 0.362-0.627-17.386-11.63-16.501-13.162 0.496-0.86 15.137 10.132 15.74 9.087 0.55-0.954-8.814-8.169-8.674-8.412 0.136-0.238 4.908 3.454 5.176 2.989" stroke="#fff" stroke-linecap="round" stroke-width="1.417" fill="none"/>
</g>
<g id="g238" transform="translate(935.01 2107.9)">
<path id="path240" stroke-linejoin="round" d="m0 0c0.163-0.282 4.974 3.348 5.18 2.99 0.187-0.324-8.543-7.674-8.481-7.78 0.075-0.13 14.224 9.179 14.643 8.454 0.922-1.598-15.487-11.821-15.469-11.852 0.721-1.249 20.377 12.112 20.527 11.851 0.308-0.531-21.771-12.946-20.527-15.101 0.46-0.796 25.365 16.47 26.155 15.101 0.622-1.077-26.22-16.554-25.597-17.633 1.302-2.257 30.044 18.497 30.542 17.634 1.604-2.779-29.45-20.117-29.413-20.181 1.752-3.035 34.668 20.672 34.951 20.18 1.932-3.346-33.168-22.564-33.052-22.765 1.584-2.745 37.828 25.541 39.43 22.765 1.863-3.227-38.178-23.234-37.471-24.458 1.752-3.035 41.321 26.262 42.363 24.458 2.187-3.789-40.471-24.59-39.693-25.938 1.415-2.451 43.482 28.441 44.928 25.938 2.059-3.568-41.274-25.308-40.356-26.898 1.738-3.011 45.449 28.87 46.588 26.898 0.846-1.466-41.15-26.361-40.81-26.951 0.855-1.48 44.548 30.643 46.68 26.951 0.889-1.541-42.625-23.377-40.561-26.951 1.034-1.791 44.498 30.729 46.68 26.95 1.283-2.222-40.791-26.639-40.611-26.95 1.086-1.881 44.123 31.379 46.68 26.95 2.048-3.549-41.133-25.573-40.338-26.95 0.483-0.837 45.022 29.819 46.679 26.95 0.949-1.643-41.087-25.787-40.416-26.95 2.361-4.088 45.717 28.616 46.68 26.95 0.207-0.359-42.233-24.471-40.802-26.95 0.839-1.452 45.738 28.581 46.68 26.95 1.172-2.032-41.938-26.581-41.726-26.95 2.092-3.622 44.283 31.1 46.679 26.95 0.27-0.467-42.344-25.734-41.641-26.951 1.747-3.026 44.831 30.148 46.677 26.95 1.78-3.082-43.447-23.557-41.488-26.95 2.275-3.941 44.08 31.451 46.679 26.95 0.403-0.699-42.688-25.233-41.698-26.949 0.316-0.547 44.781 30.236 46.679 26.949 1.354-2.345-40.762-26.274-40.372-26.95 0.196-0.341 45.83 28.42 46.678 26.95 1.553-2.689-41.801-25.874-41.18-26.95 2.266-3.925 45.149 29.6 46.679 26.95 1.658-2.873-41.94-23.706-40.067-26.95 1.76-3.047 44.819 30.171 46.679 26.95 1.047-1.815-41.643-24.705-40.346-26.95 0.878-1.522 46.417 27.4 46.677 26.95 0.985-1.706-40.899-26.351-40.553-26.951 0.888-1.538 45.554 28.897 46.678 26.95 1.392-2.411-43.213-23.48-41.21-26.949 1.758-3.046 46.337 27.539 46.678 26.949 0.522-0.904-41.96-25.586-41.173-26.949 1.804-3.124 46.526 27.213 46.678 26.949 1.869-3.237-41.878-24.872-40.678-26.949 1.671-2.895 45.532 28.933 46.677 26.949 1.066-1.845-43.088-23.091-40.861-26.949 0.495-0.858 45.23 29.457 46.677 26.949 1.437-2.488-40.191-26.836-40.125-26.95 1.527-2.644 45.719 28.609 46.677 26.949 2.327-4.03-43.621-22.99-41.336-26.949 1.499-2.596 45.006 29.846 46.677 26.95 1.542-2.67-42.062-25.687-41.333-26.95 1.217-2.106 45.738 27.537 46.227 26.689 0.491-0.85-41.953-23.295-39.994-26.689 0.451-0.781 42.225 27.978 43.784 25.278 1.236-2.142-38.332-25.008-38.175-25.278 0.612-1.059 38.738 26.936 40.717 23.508 0.349-0.604-35.772-23.505-35.77-23.508 1.684-2.917 36.675 23.078 37.499 21.65 1.569-2.716-33.839-19.347-32.509-21.65 1.861-3.223 31.933 22.836 33.838 19.537 0.392-0.68-28.2-18.926-27.848-19.537 1.543-2.672 28.748 16.994 28.919 16.696 0.013-0.021-23.589-14.635-22.399-16.696 0-0.001 22.768 13.215 22.798 13.162 0.362-0.627-17.386-11.63-16.501-13.162 0.496-0.86 15.137 10.133 15.74 9.088 0.551-0.954-8.815-8.171-8.675-8.413 0.137-0.238 4.91 3.454 5.178 2.989" stroke="#fff" stroke-linecap="round" stroke-width="1.417" fill="none"/>
</g>
</g>
</g>
</svg>