<?xml version="1.0" encoding="UTF-8" standalone="no"?>
<svg id="svg5793" xmlns:rdf="http://www.w3.org/1999/02/22-rdf-syntax-ns#" xmlns="http://www.w3.org/2000/svg" version="1.1" xmlns:cc="http://creativecommons.org/ns#" xmlns:dc="http://purl.org/dc/elements/1.1/" viewBox="0 0 200 200">
<g id="layer1" transform="translate(0 -852.36)">
<g id="g5677" transform="matrix(.25 0 0 -.25 -111.22 1259.9)">
<g id="g242" transform="translate(628.38 1199.5)">
<path id="path244" stroke-linejoin="round" d="m0 0c5.642-9.771 101.28 65.225 104.21 60.163 4.43-7.683-86.539-49.731-85.019-52.363 2.645-4.581 81.789 54.673 85.019 49.084 2.66-4.609-64.674-36.964-62.873-40.083 0.622-1.077 59.773 41.673 62.873 36.299 1.69-2.934-46.22-28.873-45.913-29.406 1.817-3.146 43.665 30.404 45.914 26.508 0.987-1.71-24.069-16.878-23.718-17.486 0.519-0.9 22.445 15.902 23.719 13.694 0.418-0.724-7.221-6.734-7.102-6.941 0.313-0.541 6.766 4.686 7.104 4.101" stroke="#fff" stroke-linecap="round" stroke-width="1.417" fill="none"/>
</g>
<g id="g246" transform="translate(579.42 1218.1)">
<path id="path248" stroke-linejoin="round" d="m0 0c0.012-0.02 2.402 1.601 2.495 1.44 0.06-0.103-2.607-4.281-2.495-4.475 1.005-1.74 20.883 12.319 20.997 12.123 0.8-1.388-21.924-14.221-20.997-15.826 0.819-1.419 42.19 27.563 43.578 25.16 0.995-1.724-44.923-26.655-43.578-28.985 1.228-2.127 65.896 40.366 66.902 38.625 2.347-4.065-68.174-39.416-66.902-41.62 1.434-2.482 84.634 50.065 85.154 49.163 3.826-6.627-86.566-50.119-85.154-52.565 4.554-7.887 101.97 67.951 105.9 61.142 1.86-3.218-109.34-58.029-105.9-63.98 4.862-8.422 120.91 75.111 123.2 71.132 3.77-6.529-129.34-63.444-123.2-74.075 1.345-2.328 138.55 85.994 141.15 81.491 4.9-8.495-142.08-83.387-141.15-85.004 8.326-14.421 150.32 93.356 153.16 88.43 3.76-6.494-157.91-83.144-153.16-91.367 3.852-6.671 151.12 91.978 153.17 88.43 5.85-10.133-157.18-85.242-153.17-92.197 7.016-12.152 152.85 88.984 153.17 88.432 8.64-14.971-154.4-89.12-153.17-91.256 1.87-3.239 149.43 94.908 153.17 88.431 3.43-5.942-160.69-79.146-153.17-92.163 5.251-9.096 144.84 102.86 153.17 88.433 6.44-11.158-159.07-77.085-151.03-91.009 5.94-10.289 144.66 98.234 151.03 87.198 6.62-11.462-152.66-79.594-147.4-88.696 1.085-1.878 40.385 24.307 40.814 23.564 1.872-3.244-37.989-23.567-37.106-25.095 1.824-3.159 37.654 26.23 39.598 22.862 1.647-2.851-37.526-21.75-36.036-24.332 0.985-1.704 39.018 23.925 39.624 22.876 1.734-3.003-36.852-23.366-36.356-24.225 0.71-1.23 39.524 23.1 39.646 22.888 1.105-1.913-38.399-20.867-36.476-24.198 0.195-0.338 37.39 26.848 39.668 22.902 0.38-0.659-36.641-23.463-36.119-24.368 1.177-2.037 37.941 25.951 39.693 22.917 0.561-0.973-38.885-20.576-36.858-24.087 1.627-2.818 38.94 24.266 39.712 22.928 0.887-1.535-38.81-20.746-36.874-24.1 0.528-0.914 39.703 22.99 39.732 22.94 1.296-2.244-37.233-23.291-36.718-24.184 0.957-1.658 38.706 24.765 39.753 22.951 1.848-3.201-37.463-22.786-36.62-24.245 2.104-3.643 37.88 26.246 39.775 22.965 0.574-0.995-37.806-22.022-36.476-24.327 0.513-0.89 37.518 26.928 39.798 22.977 0.327-0.565-37.623-22.591-36.649-24.278 2.096-3.63 39.003 24.403 39.819 22.99 0.218-0.376-36.47-23.865-36.086-24.531 0.13-0.224 38.26 25.751 39.845 23.005 1.619-2.804-37.969-21.397-36.163-24.525 1.233-2.136 39.301 24.008 39.872 23.019 0.963-1.667-37.889-22.852-37.142-24.146 1.477-2.559 38.484 25.466 39.891 23.031 1.434-2.485-38.746-20.678-36.603-24.389 1.966-3.406 37.886 26.554 39.913 23.044 0.207-0.358-36.779-23.722-36.311-24.532 0.868-1.503 39.319 24.132 39.939 23.059 0.749-1.297-37.377-23.581-36.971-24.284 1.002-1.735 37.744 26.908 39.959 23.071 2.166-3.753-36.331-24.409-36.21-24.618 0.384-0.666 37.988 26.543 39.985 23.085 1.286-2.228-36.799-23.837-36.371-24.578 0.136-0.236 39.901 23.288 40.01 23.1 1.498-2.595-36.734-23.686-36.152-24.693 0.021-0.037 38.912 25.064 40.037 23.115 1.892-3.278-37.191-24.221-37.138-24.313 0.255-0.441 40.024 23.186 40.058 23.128 1.916-3.319-37.319-22.871-36.267-24.692 0.912-1.58 39.488 24.174 40.084 23.142 1.397-2.419-36.881-23.84-36.408-24.66 0.143-0.248 37.825 27.113 40.109 23.157 0.705-1.221-37.64-23.444-37.085-24.406 1.288-2.231 39.904 23.563 40.131 23.169 0.061-0.106-37.65-22.338-36.244-24.773 0.056-0.097 38.044 26.844 40.157 23.184 0.798-1.381-37.062-23.968-36.687-24.618 1.831-3.171 38.53 26.06 40.182 23.198 0.139-0.24-39.439-20.704-37.316-24.38 1.219-2.112 39.504 24.417 40.201 23.21 1.254-2.172-38.351-22.13-36.952-24.553 1.582-2.741 38.875 25.56 40.224 23.223 1.987-3.442-36.772-24.198-36.431-24.789 1.23-2.131 37.936 27.247 40.25 23.24 0.212-0.368-38.455-21.76-36.772-24.676 1.589-2.753 40.257 23.284 40.275 23.253 0.061-0.107-38.378-21.429-36.402-24.852 2.206-3.82 38.939 25.627 40.302 23.268 0.407-0.705-37.644-23.723-37.158-24.567 0.555-0.96 38.496 24.543 39.5 22.806 1.014-1.757-36.723-22.931-35.949-24.271 1.018-1.763 34.764 22.814 35.952 20.756 0.241-0.417-33.976-20.532-33.188-21.898 0.386-0.667 32.542 20.285 33.191 19.162 0.576-0.997-30.68-19.287-29.988-20.484 0.886-1.536 29.881 17.506 29.991 17.315 1.195-2.068-26.405-18.789-26.4-18.799 0.932-1.614 25.505 16.803 26.404 15.245 0.901-1.559-23.236-16.18-22.954-16.669 0.482-0.835 21.759 15.332 22.958 13.255 1.132-1.961-20.967-12.612-19.856-14.536 0.02-0.035 18.973 13 19.859 11.465 0.665-1.151-16.076-13.004-16.059-13.034 0.555-0.96 15.846 9.649 16.063 9.274 0.473-0.82-12.969-10.233-12.729-10.65 0.623-1.078 12.481 7.785 12.732 7.35 0.257-0.445-9.112-8.567-8.901-8.932 0.015-0.026 8.519 5.81 8.905 5.141 0.001-0.001-5.577-6.117-5.275-6.64 0.11-0.191 5.004 3.523 5.279 3.048 0.041-0.072-1.628-4.412-1.518-4.601 0.088-0.152 1.438 1.025 1.522 0.879" stroke="#fff" stroke-linecap="round" stroke-width="1.417" fill="none"/>
</g>
<g id="g250" transform="translate(884.58 1362.8)">
<path id="path252" stroke-linejoin="round" d="m0 0c0.004-0.007 0.944 0.631 0.981 0.567 0.066-0.114-3.127-4.555-3.003-4.769 0.395-0.685 8.214 4.846 8.259 4.768 0.445-0.77-11.243-9.004-10.727-9.897 0.321-0.557 16.595 10.844 17.142 9.897 0.473-0.818-20.332-14.086-19.692-15.194 0.483-0.836 25.922 15.88 26.318 15.195 1.021-1.768-28.866-18.381-28.313-19.34 0.564-0.977 33.293 19.695 33.498 19.339 1.648-2.854-36.374-22.998-35.766-24.05 1.792-3.104 40.113 26.729 41.659 24.051 0.777-1.346-44.988-25.493-43.55-27.982 1.913-3.314 47.562 29.548 48.466 27.982 1.567-2.714-52.979-27.638-50.427-32.057 0.529-0.916 54.502 33.828 55.524 32.056 2.044-3.539-58.254-36.247-57.865-36.92 3.476-6.021 62.762 38.977 63.949 36.92 1.632-2.826-67.974-37.409-65.907-40.988 1.68-2.909 65.897 40.108 66.79 38.561 2.683-4.646-71.141-40.588-69.3-43.777 3.06-5.3 66.652 38.803 66.79 38.562 3.914-6.779-69.231-41.506-68.672-42.473 0.815-1.413 65.16 41.386 66.791 38.562 1.572-2.724-72.722-37.765-69.278-43.731 2.289-3.966 63.158 44.856 66.791 38.563 2.997-5.191-73.071-37.362-69.332-43.839 2.627-4.551 63.976 43.44 66.792 38.561 3.145-5.447-71.681-39.211-69.184-43.535 1.775-3.074 66.091 39.778 66.792 38.563 3.422-5.927-70.851-40.854-69.239-43.647 3.077-5.33 63.513 44.244 66.793 38.563 3.092-5.356-71.945-38.598-69.144-43.449 1.658-2.872 65.772 40.334 66.793 38.564 3.226-5.586-69.873-41.445-68.95-43.044 1.196-2.07 66.589 38.92 66.794 38.564 2.049-3.549-72.451-36.735-68.886-42.911 0.33-0.571 62.96 45.207 66.795 38.564 0.713-1.235-70.116-41.736-69.136-43.431 1.979-3.429 63.846 43.67 66.794 38.564 1.03-1.784-72.382-36.014-68.666-42.452 2.737-4.741 65.497 40.814 66.796 38.565 1.625-2.815-72.217-36.311-68.669-42.455 0.887-1.537 66.748 38.648 66.796 38.564 2.386-4.133-69.733-41.054-68.785-42.698 1.609-2.786 65.038 41.611 66.797 38.565 3.413-5.912-70.42-40.167-68.864-42.861 3.532-6.118 63.614 44.076 66.797 38.565 1.064-1.844-71.443-38.815-68.975-43.089 0.862-1.492 62.969 45.197 66.798 38.565 0.602-1.043-70.672-39.77-68.875-42.883 3.516-6.09 65.429 40.936 66.797 38.566 0.409-0.707-69.982-42.436-69.261-43.685 0.218-0.378 64.141 43.17 66.799 38.567 3.031-5.251-72.611-37.759-69.229-43.617 2.065-3.577 65.843 40.223 66.799 38.567 1.752-3.035-69.961-39.955-68.601-42.311 2.473-4.283 64.444 42.648 66.8 38.567 2.652-4.593-72.931-36.212-68.969-43.074 3.292-5.702 63.408 44.441 66.8 38.568 0.386-0.67-70.048-41.999-69.177-43.508 1.452-2.516 65.764 40.362 66.8 38.567 1.371-2.374-69.502-41.35-68.76-42.637 1.676-2.902 63.098 44.982 66.801 38.568 4.053-7.02-69.501-43.316-69.275-43.708 0.642-1.112 63.466 44.345 66.802 38.567 2.394-4.147-69.982-42.144-69.186-43.523 0.228-0.395 66.621 38.883 66.802 38.568 2.808-4.863-70.438-41.97-69.348-43.858 0.035-0.062 64.925 41.819 66.802 38.568 3.446-5.968-68.812-42.378-68.715-42.544 0.424-0.736 66.748 38.663 66.802 38.569 3.581-6.203-71.27-40.364-69.304-43.769 1.519-2.632 65.81 40.29 66.803 38.57 2.597-4.499-70.109-42.084-69.229-43.609 0.239-0.413 63 45.157 66.803 38.569 1.287-2.227-69.812-40.962-68.799-42.716 2.144-3.715 66.425 39.224 66.804 38.569 0.115-0.199-71.999-39.344-69.369-43.899 0.093-0.161 63.29 44.658 66.805 38.569 1.471-2.548-69.787-42.129-69.095-43.328 3.043-5.272 64.059 43.327 66.805 38.57 0.253-0.438-72.545-35.835-68.696-42.5 2.024-3.508 65.647 40.576 66.805 38.57 2.296-3.976-71.512-38.587-68.949-43.025 2.628-4.554 64.566 42.45 66.806 38.57 3.698-6.404-69.945-42.672-69.31-43.77 2.043-3.538 62.966 45.222 66.807 38.57 0.39-0.676-72.204-37.969-69.102-43.341 2.636-4.566 66.777 38.624 66.807 38.572 0.115-0.199-73.043-37.509-69.363-43.882 3.656-6.333 64.549 42.482 66.807 38.571 0.742-1.285-69.769-41.348-68.882-42.884 0.937-1.622 65.111 41.513 66.808 38.572 1.909-3.306-70.609-40.915-69.151-43.441 1.892-3.276 64.601 42.396 66.809 38.572 0.488-0.845-70.234-39.591-68.634-42.363 0.775-1.343 65.504 40.834 66.809 38.572 1.288-2.229-70.468-40.284-68.922-42.962 1.975-3.42 66.566 38.996 66.81 38.573 3.011-5.217-69.193-43.475-69.18-43.498 2.359-4.085 64.534 42.515 66.81 38.573 2.588-4.483-69.896-41.9-69.087-43.303 1.402-2.429 63.322 44.616 66.811 38.573 3.732-6.462-72.517-36.489-68.858-42.828 0.068-0.116 63.831 43.737 66.812 38.574 2.636-4.566-69.39-43.663-69.32-43.785 2.305-3.992 65.91 40.137 66.812 38.575 2.32-4.02-70.193-41.103-69.013-43.147 3.267-5.658 65.495 40.856 66.812 38.574 1.67-2.891-70.71-41.453-69.339-43.827 0.109-0.188 63.914 43.595 66.813 38.574 0.006-0.009-72.122-38.506-69.209-43.551 1.39-2.408 63.331 44.605 66.813 38.574 0.696-1.204-71.136-40.539-69.294-43.731 3.853-6.672 63.117 44.979 66.814 38.576 1.423-2.465-65.07-33.456-61.658-39.366 2.984-5.169 59.046 34.327 59.148 34.15 2.111-3.656-55.085-30.746-53.12-34.15 0.44-0.761 49.055 32.356 50.801 29.33 0.164-0.283-45.357-28.873-45.092-29.33 0.38-0.659 41.761 26.734 42.897 24.767 0.936-1.623-37.757-24.455-37.578-24.767 0.769-1.332 33.738 23.619 35.531 20.514 0.464-0.805-31.164-17.595-29.479-20.514 0.508-0.881 25.879 17.878 27.151 15.676 0.637-1.103-21.766-13.458-20.485-15.676 0.36-0.625 17.691 10.745 17.921 10.347 0.205-0.355-13.109-9.333-12.524-10.347 0.433-0.751 10.344 6.209 10.447 6.033 0.074-0.128-4.569-5.442-4.228-6.034 0.102-0.176 1.778 1.162 1.836 1.061" stroke="#fff" stroke-linecap="round" stroke-width="1.417" fill="none"/>
</g>
<g id="g254" transform="translate(957.12 1153.1)">
<path id="path256" stroke-linejoin="round" d="m0 0c0.13-0.225 2.327 1.498 2.394 1.383 0.233-0.404-2.472-4.525-2.392-4.662 0.671-1.163 20.764 13.881 21.583 12.462 0.964-1.67-22.234-15.116-21.582-16.246 0.433-0.749 41.571 28.983 43.728 25.247 1.617-2.799-44.019-27.637-43.726-28.145 2.401-4.158 57.714 40.187 60.686 35.037 2.414-4.18-61.544-37.34-60.684-38.829 1.813-3.141 78.425 55.568 82.881 47.852 4.09-7.084-84.048-48.668-82.88-50.692 4.379-7.584 94.763 65.644 99.497 57.445 5.815-10.08-101.7-56.653-99.495-60.464 8.1-14.031 141.63 100.43 149.71 86.432 2.84-4.922-153.94-82.311-149.71-89.641 5.753-9.963 148.91 95.3 152.95 88.303 7.34-12.711-153.5-91.1-152.95-92.063 7.529-13.034 144.69 103.13 153.17 88.434 2.36-4.075-155.27-88.292-153.16-91.932 3.908-6.777 152.35 89.844 153.17 88.433 0.28-0.487-159.29-81.544-153.17-92.144 2.03-3.523 150.63 92.834 153.17 88.434 6.2-10.744-156.56-85.347-153.17-91.208 5.621-9.74 145.04 102.51 153.17 88.433 0.06-0.1-158.78-80.823-152.77-91.237 5.64-9.766 147.81 96.799 152.77 88.201 7.46-12.914-138.73-67.478-131.77-79.522 6.697-11.602 127.66 83.193 131.77 76.079 4.11-7.125-113.83-60.29-109.93-67.051 6.088-10.546 107.94 66.915 109.93 63.47 4.837-8.379-92.648-53.583-91.369-55.797 1.885-3.267 89.639 55.751 91.37 52.753 2.631-4.556-75.304-42.986-73.846-45.51 4.178-7.238 70.413 48.585 73.848 42.636 1.606-2.782-52.613-32-51.747-33.5 1.125-1.95 51.075 31.043 51.748 29.877 0.036-0.062-35.795-20.019-34.273-22.655 1.487-2.576 32.549 22.778 34.275 19.788 0.525-0.909-13.217-10.295-12.849-10.931 0.167-0.29 12.591 7.866 12.85 7.419" stroke="#fff" stroke-linecap="round" stroke-width="1.417" fill="none"/>
</g>
<g id="g258" transform="translate(957.13 1281.4)">
<path id="path260" stroke-linejoin="round" d="m0 0c0.002-0.004 0.398 0.265 0.414 0.238 0.038-0.066-0.486-3.148-0.414-3.273 0.167-0.288 3.459 2.04 3.478 2.008 0.204-0.353-3.713-5.303-3.478-5.711 0.136-0.236 6.988 4.564 7.218 4.167 0.205-0.355-7.495-7.513-7.218-7.993 0.203-0.352 10.915 6.686 11.081 6.398 0.433-0.75-11.315-8.984-11.081-9.392 0.238-0.411 14.018 8.292 14.104 8.143 0.697-1.207-14.361-11.1-14.104-11.545 0.754-1.307 16.889 11.254 17.54 10.127 0.328-0.567-18.145-11.917-17.54-12.965 0.805-1.395 20.026 12.441 20.406 11.781 0.66-1.143-21.48-12.864-20.406-14.724 0.223-0.386 22.947 14.243 23.378 13.497 0.86-1.49-23.542-16.726-23.378-17.01 1.464-2.534 26.425 16.411 26.925 15.545 0.686-1.189-27.795-16.977-26.925-18.482 0.751-1.302 29.491 17.95 29.892 17.257 1.195-2.071-30.713-19.602-29.892-21.024 1.543-2.673 33.625 19.575 33.695 19.454 1.958-3.392-33.975-21.794-33.695-22.278 0.446-0.773 35.655 22.645 36.547 21.1 0.849-1.469-38.404-21.615-36.547-24.832 1.382-2.394 38.124 27.074 40.316 23.277 1.612-2.792-38.454-21.369-36.443-24.852 1.585-2.745 38.592 26.205 40.292 23.262 1.701-2.946-37.991-22.406-36.641-24.745 1.071-1.854 39.844 23.98 40.267 23.248 1.845-3.197-37.402-23.258-36.533-24.764 1.854-3.212 38.264 26.655 40.241 23.233 1.673-2.899-38.168-22.065-36.653-24.69 0.998-1.729 39.6 24.283 40.215 23.219 1.76-3.048-37.428-23.683-36.925-24.555 0.719-1.246 40.07 23.419 40.193 23.205 1.12-1.939-38.95-21.125-37.001-24.502 0.198-0.342 37.864 27.189 40.171 23.194 0.385-0.668-37.126-23.728-36.597-24.645 1.19-2.059 38.374 26.248 40.146 23.179 0.568-0.984-39.341-20.787-37.291-24.337 1.644-2.849 39.347 24.517 40.126 23.167 0.896-1.552-39.225-20.94-37.269-24.327 0.533-0.923 40.077 23.205 40.107 23.154 1.307-2.266-37.592-23.486-37.072-24.388 0.966-1.672 39.03 24.972 40.086 23.144 1.863-3.228-37.78-22.953-36.931-24.424 2.119-3.671 38.155 26.436 40.064 23.131 0.578-1.002-38.081-22.16-36.741-24.481 0.516-0.893 37.746 27.092 40.04 23.118 0.329-0.569-37.85-22.708-36.87-24.406 2.107-3.649 39.199 24.526 40.019 23.106 0.218-0.378-36.646-23.963-36.26-24.631 0.13-0.227 38.401 25.846 39.993 23.09 1.624-2.814-38.097-21.458-36.285-24.596 1.236-2.141 39.395 24.067 39.967 23.075 0.965-1.672-37.966-22.894-37.218-24.191 1.48-2.563 38.54 25.504 39.948 23.064 1.436-2.487-38.782-20.694-36.638-24.409 1.968-3.408 37.898 26.562 39.925 23.051 0.207-0.358-36.764-23.715-36.297-24.523 0.867-1.502 39.281 24.108 39.9 23.036 0.748-1.296-37.317-23.548-36.912-24.25 1-1.732 37.669 26.854 39.88 23.024 2.16-3.742-36.225-24.348-36.105-24.557 0.383-0.663 37.864 26.456 39.853 23.009 1.282-2.218-36.64-23.75-36.214-24.487 0.136-0.235 39.72 23.183 39.829 22.995 1.49-2.58-36.522-23.57-35.944-24.572 0.021-0.036 38.683 24.917 39.802 22.979 1.88-3.257-36.935-24.073-36.882-24.165 0.253-0.437 39.748 23.025 39.781 22.968 1.902-3.293-37.007-22.71-35.963-24.518 0.904-1.567 39.164 23.976 39.754 22.953 1.383-2.396-36.522-23.644-36.054-24.456 0.142-0.246 37.468 26.856 39.729 22.938 0.699-1.209-37.232-23.223-36.683-24.175 1.275-2.207 39.484 23.316 39.709 22.926 0.06-0.105-37.185-22.107-35.795-24.515 0.055-0.095 37.593 26.527 39.681 22.91 0.787-1.363-36.557-23.688-36.187-24.329 1.807-3.13 38.027 25.719 39.657 22.896 0.138-0.237-38.864-20.442-36.771-24.067 1.202-2.082 38.95 24.075 39.637 22.884 1.234-2.137-37.743-21.827-36.365-24.214 1.559-2.699 38.286 25.173 39.614 22.872 1.955-3.385-36.131-23.84-35.796-24.421 1.211-2.097 37.313 26.797 39.588 22.856" stroke="#fff" stroke-linecap="round" stroke-width="1.417" fill="none"/>
</g>
</g>
</g>
</svg>