<?xml version="1.0" encoding="UTF-8" standalone="no"?>
<svg id="svg5793" xmlns:rdf="http://www.w3.org/1999/02/22-rdf-syntax-ns#" xmlns="http://www.w3.org/2000/svg" version="1.1" xmlns:cc="http://creativecommons.org/ns#" xmlns:dc="http://purl.org/dc/elements/1.1/" viewBox="0 0 200 200">
<g id="layer1" transform="translate(0 -852.36)">
<g id="g5665" transform="matrix(.25 0 0 -.25 -111.2 1358.3)">
<g id="g262" transform="translate(599.43 1562.9)">
<path id="path264" stroke-linejoin="round" d="m0 0c0.188-0.327 63.452 39.432 64.664 37.333 0.297-0.514-59.483-36.157-58.804-37.333 0.534-0.924 61.245 43.254 64.663 37.334 0.172-0.298-60.483-34.304-58.734-37.333 3.451-5.979 62.846 40.479 64.663 37.333 2.437-4.222-62.626-32.39-59.772-37.333 1.752-3.034 61.834 42.231 64.662 37.333 1.25-2.165-62.399-32.81-59.787-37.333 2.242-3.885 64.239 38.063 64.661 37.332 2.57-4.45-62.505-32.134-59.504-37.332 2.322-4.022 61.594 42.645 64.661 37.332 1.617-2.802-61.669-32.761-59.03-37.332 0.542-0.939 64.352 37.868 64.661 37.332 2.011-3.482-60.789-35.299-59.615-37.331 2.601-4.506 62.661 40.796 64.661 37.331 0.49-0.854-60.486-34.993-59.136-37.331 3.131-5.423 63.086 40.056 64.656 37.331 1.64-2.832-60.829-33.78-58.779-37.33 0.233-0.405 64.429 37.722 64.659 37.331 2.32-4.026-60.888-34.509-59.259-37.331 0.282-0.488 64.049 38.389 64.659 37.33 3.47-6.014-61.327-34.379-59.623-37.33 3.607-6.248 64.393 37.785 64.653 37.331 3.31-5.731-59.18-36.964-58.968-37.33 0.497-0.862 61.542 42.725 64.657 37.33 0.722-1.25-61.006-35.281-59.822-37.33 1.452-2.516 63.736 38.924 64.656 37.329 2.3-3.983-62.098-31.314-58.626-37.329 2.907-5.034 62.256 41.488 64.656 37.329 2.47-4.274-59.878-35.633-58.899-37.328 3.522-6.101 63.999 38.472 64.659 37.328 2.13-3.694-61.966-33.232-59.601-37.328 1.253-2.171 61.591 42.628 64.651 37.328 0.07-0.116-59.928-35.918-59.114-37.328 1.385-2.399 62.972 40.243 64.654 37.328 2.367-4.1-61.075-33.084-58.625-37.327 0.74-1.281 62.923 40.325 64.654 37.327 2.383-4.129-59.797-37.107-59.671-37.327 1.809-3.133 64.526 37.548 64.653 37.328 3.023-5.236-58.761-36.941-58.538-37.327 2.623-4.544 63.656 39.053 64.652 37.327 1.387-2.403-61.755-31.865-58.601-37.327 2.168-3.756 63.242 39.769 64.652 37.327 1.314-2.275-62.571-31.563-59.243-37.327 2.498-4.326 61.576 42.654 64.651 37.327 1.969-3.409-60.049-34.183-58.234-37.326 2.943-5.099 64.483 37.615 64.65 37.325 1.878-3.252-60.844-33.166-58.443-37.325 2.352-4.074 63.227 39.789 64.649 37.326 1.959-3.392-58.682-36.769-58.361-37.325 3.378-5.851 61.697 42.44 64.65 37.325 0.285-0.493-60.149-35.543-59.12-37.325 2.59-4.486 64.095 38.284 64.649 37.324 0.08-0.153-59.55-35.493-58.5-37.324 1.38-2.385 61.31 43.115 64.65 37.324 1.8-3.113-60.72-33.833-58.71-37.323 3.65-6.324 64.35 37.83 64.65 37.324 3.3-5.714-59.47-36.731-59.13-37.324 1.922-3.328 61.036 43.578 64.647 37.324 0.948-1.642-61.089-34.627-59.533-37.324 1.911-3.309 62.028 41.858 64.646 37.324 1.301-2.252-61.353-34.438-59.687-37.323 1.864-3.23 63.337 39.59 64.645 37.323 2.37-4.105-62.607-31.616-59.312-37.323 1.006-1.743 62.608 40.85 64.645 37.322 1.068-1.849-59.303-36.284-58.704-37.322 2.618-4.535 62.925 40.3 64.644 37.322 2.938-5.087-59.702-36.397-59.169-37.322 1.857-3.216 63.692 38.971 64.644 37.322 0.2-0.347-61.335-33.436-59.092-37.321 1.086-1.882 61.63 42.541 64.644 37.322 0.017-0.03-59.633-34.939-58.257-37.322 2.025-3.508 64.199 38.089 64.643 37.321 2.167-3.754-60.583-35.582-59.579-37.32 1.807-3.13 61.062 43.52 64.641 37.321 1.493-2.586-62.179-32.884-59.617-37.321 3.407-5.902 61.971 41.945 64.641 37.321 2.337-4.047-60.718-34.851-59.291-37.321 0.206-0.357 64.082 38.288 64.64 37.321 3.027-5.242-59.737-36.22-59.102-37.32 0.519-0.9 64.145 38.178 64.64 37.32 0.341-0.59-61.086-35.12-59.816-37.32 1.467-2.542 62.717 40.65 64.64 37.319 1.23-2.131-59.513-35.62-58.532-37.318 0.192-0.333 64.211 38.06 64.639 37.319 2.409-4.173-59.142-36.703-58.787-37.319 0.419-0.725 61.189 43.294 64.639 37.319 2.836-4.911-58.785-35.934-57.985-37.319 0.782-1.355 61.251 43.186 64.638 37.319 1.984-3.437-60.203-34.389-58.512-37.319 1.271-2.2 61.171 43.324 64.637 37.318 1.538-2.663-59.767-34.904-58.374-37.317 1.119-1.938 61.372 42.972 64.637 37.318 3.268-5.661-59.948-36.657-59.566-37.318 2.599-4.502 63.228 39.755 64.636 37.317 3.202-5.546-60.661-33.722-58.586-37.316 0.806-1.396 62.708 40.655 64.635 37.317 2.119-3.67-60.475-36.374-59.93-37.317 3.646-6.315 62.516 40.986 64.634 37.316 0.869-1.503-61.074-34.964-59.716-37.316 0.566-0.982 61.844 42.148 64.634 37.317 2.577-4.464-60.131-34.26-58.366-37.317 0.453-0.785 63.227 39.752 64.633 37.316 2.928-5.07-58.645-37.021-58.476-37.315 0.8-1.384 62.769 40.544 64.634 37.315 1.523-2.638-59.616-37.202-59.551-37.315 1.678-2.906 63.131 39.917 64.633 37.315 3.305-5.724-61.455-33.051-58.993-37.314 2.633-4.562 63.361 39.515 64.631 37.314 3.424-5.929-60.573-35.093-59.291-37.314 3.18-5.508 61.801 42.215 64.631 37.314 2.869-4.97-60.342-35.472-59.279-37.313 0.737-1.276 63.97 38.459 64.631 37.314 1.148-1.989-59.07-35.772-58.179-37.314 3.577-6.197 62.608 40.814 64.629 37.314 1.886-3.266-62.66-32.142-59.674-37.314 2.509-4.345 62.273 41.397 64.63 37.314 2.789-4.831-59.867-34.919-58.484-37.314 2.425-4.201 64.187 38.079 64.628 37.313 2.512-4.35-60.757-32.681-58.082-37.312 1.044-1.809 61.944 41.962 64.628 37.313 0.951-1.646-59.448-37.153-59.355-37.313 0.094-0.164 64.458 37.605 64.627 37.313 1.497-2.592-59.479-36.113-58.786-37.313 1.608-2.786 63.202 39.782 64.627 37.313 1.03-1.783-59.756-35.194-58.533-37.312 1.64-2.842 62.413 41.145 64.626 37.312 0.967-1.675-59.406-35.837-58.554-37.312 0.02-0.035 62.289 41.36 64.626 37.312 1.953-3.384-58.363-36.999-58.183-37.312 3.259-5.645 63.508 39.245 64.625 37.311 0.674-1.167-60.094-36.655-59.716-37.31 0.6-1.039 61.458 42.796 64.624 37.311 3.475-6.018-62.222-32.267-59.31-37.311 0.218-0.377 62.204 41.501 64.624 37.311 2.39-4.139-60.492-35.018-59.169-37.31 2.087-3.614 61.721 42.338 64.623 37.31 1.552-2.687-61.977-31.87-58.836-37.311 3.115-5.395 61.897 42.03 64.623 37.31 1.764-3.055-62.094-32.362-59.238-37.309 2.155-3.732 61.973 41.897 64.622 37.309 0.817-1.414-61.979-32.002-58.915-37.309 2.017-3.494 63.064 40.006 64.621 37.31 2.522-4.368-60.645-34.486-59.015-37.309 0.617-1.069 61.978 41.887 64.62 37.309 0.407-0.703-62.177-31.596-58.879-37.309 0.669-1.158 64.075 38.254 64.62 37.309 0.207-0.358-61.056-34.96-59.7-37.309 1.165-2.018 62.372 41.201 64.62 37.309 2.049-3.55-59.737-36.772-59.428-37.308 0.371-0.643 62.344 41.25 64.619 37.308 2.144-3.713-59.744-35.33-58.603-37.308 1.684-2.917 63.65 38.987 64.619 37.308 1.165-2.018-61.592-33.878-59.612-37.307 1.051-1.82 62.833 40.399 64.618 37.307 1.766-3.059-59.302-35.592-58.312-37.308 1.71-2.961 63.936 38.486 64.617 37.307 0.218-0.377-60.974-34.132-59.141-37.306 1.688-2.923 62.616 40.773 64.617 37.307 2.1-3.639-60.719-32.783-58.108-37.306 0.222-0.385 62.884 38.654 63.9 36.892 0.022-0.038-59.951-33.343-57.902-36.892 1.877-3.251 60.964 36.933 61.716 35.632 0.522-0.904-58.223-31.02-55.56-35.632 1.076-1.864 58.275 34.531 58.658 33.868 1.618-2.803-52.753-32.604-52.023-33.867 2.079-3.602 53.874 33.013 54.702 31.582 1.889-3.273-49.819-29.449-48.588-31.582 0.854-1.478 49.132 31.637 50.548 29.185 2.483-4.301-47.326-26.283-45.651-29.184 2.336-4.047 46.162 28.375 46.909 27.082 1.25-2.165-43.619-23.072-41.303-27.082 2.165-3.75 40.229 28.243 42.402 24.481 2.062-3.573-38.991-22-37.559-24.481 0.249-0.432 37.258 23.738 38.221 22.068 0.304-0.526-38.502-22.618-37.015-25.195 0.127-0.218 36.817 22.448 37.333 21.554 2.238-3.876-37.348-25.058-37.331-25.088 0.871-1.509 35.829 24.154 37.331 21.553 0.815-1.411-39.32-21.64-37.33-25.089 0.184-0.318 35.415 24.87 37.33 21.553 1.767-3.062-38.599-23.124-37.328-25.326 1.863-3.227 35.548 24.635 37.328 21.551 0.049-0.084-37.339-24.645-37.327-24.666 1.989-3.444 36.788 22.485 37.327 21.551 0.615-1.065-38.218-23.491-37.326-25.037 2.154-3.729 35.68 24.4 37.326 21.55 1.419-2.458-39.29-21.866-37.323-25.273 0.695-1.205 36.03 23.789 37.323 21.549 1.411-2.441-37.822-23.782-37.322-24.648 1.943-3.366 37.17 21.813 37.323 21.549 0.728-1.262-39.329-20.939-37.322-24.415 1.12-1.939 35.176 25.263 37.321 21.548 2.223-3.849-38.443-22.889-37.319-24.835 0.335-0.582 37.29 21.597 37.319 21.546 1.004-1.738-38.184-23.371-37.318-24.87 0.728-1.262 36.528 22.914 37.318 21.546 1.444-2.501-39.348-21.024-37.317-24.541 1.246-2.159 35.781 24.205 37.317 21.545 0.763-1.321-38.504-22.966-37.316-25.024 0.274-0.475 35.294 25.046 37.316 21.544 2.029-3.514-39.249-21.326-37.314-24.677 0.529-0.917 35.575 24.555 37.314 21.544 1.871-3.242-38.467-22.495-37.313-24.494 2.012-3.485 35.99 23.835 37.313 21.543 0.874-1.514-38.838-22.054-37.312-24.698 1.76-3.047 37.277 21.602 37.312 21.542 1.084-1.878-37.53-24.251-37.31-24.632 1.446-2.504 36.825 22.383 37.31 21.541 0.758-1.312-38.576-22.307-37.309-24.502 0.816-1.414 35.634 24.444 37.309 21.541 1.163-2.015-38.579-22.929-37.307-25.132 1.264-2.191 35.291 25.032 37.307 21.54 1.821-3.154-39.2-21.936-37.306-25.215 0.559-0.97 35.984 23.829 37.306 21.538 0.545-0.942-38.491-22.485-37.305-24.54 2.052-3.554 37.282 21.578 37.305 21.538 2.177-3.771-38.17-22.844-37.268-24.405 1.872-3.243 35.258 24.999 37.268 21.516 0.046-0.078-38.184-22.502-36.966-24.61 1.023-1.772 34.939 24.854 36.966 21.343 0.741-1.282-37.15-22.558-36.163-24.268 0.048-0.083 35.095 22.73 36.163 20.878 0.057-0.097-36.966-19.987-34.931-23.512 0.736-1.274 34.785 20.421 34.931 20.167 1.967-3.406-34.26-20.862-33.082-22.904 1.318-2.281 31.751 21.404 33.082 19.1 1.515-2.623-32.591-18.58-31.118-21.132 1.761-3.049 30.523 18.997 31.118 17.966 0.69-1.196-29.701-17.801-28.435-19.994 0.328-0.569 27.647 17.783 28.435 16.417 0.651-1.127-27.049-15.281-25.554-17.871 1.314-2.275 24.044 16.812 25.313 14.615 0.535-0.928-22.704-14.468-22.058-15.586 0.998-1.729 20.47 13.673 21.273 12.282 0.476-0.824-15.319-12.115-15.129-12.443 0.077-0.134 11.558 8.195 12.217 7.052" stroke="#fff" stroke-linecap="round" stroke-width="1.417" fill="none"/>
</g>
<g id="g266" transform="translate(567.88 1770.4)">
<path id="path268" stroke-linejoin="round" d="m0 0c0.066-0.116 5.878 3.785 6.047 3.492 0.299-0.517-10.661-8.769-10.434-9.162 0.439-0.761 17.206 10.757 17.563 10.139 1.129-1.956-19.975-12.872-19.109-14.373 0.107-0.185 23.295 14.026 23.544 13.593 0.673-1.164-24.377-17.096-24.062-17.643 0.164-0.283 27.562 16.541 27.834 16.07 0.474-0.822-29.243-16.826-27.846-19.245 0.9-1.559 29.849 18.397 30.353 17.524 1.209-2.095-32.009-18.197-30.353-21.064 1.139-1.975 31.448 20.945 32.656 18.854 1.502-2.602-34.491-18.744-32.656-21.923 1.763-3.054 33.319 21.388 34.25 19.775 1.602-2.775-35.71-21.046-34.25-23.575 0.435-0.754 34.977 22.089 35.797 20.667 1.96-3.395-36.734-21.986-35.797-23.609 1.964-3.403 34.963 24.009 36.618 21.142 1.372-2.376-38.557-20.616-36.618-23.973 0.119-0.207 36.678 22.165 37.106 21.423 0.638-1.105-37.618-23.71-37.106-24.596 1.376-2.384 35.338 24.942 37.304 21.538 0.582-1.009-37.847-23.555-37.304-24.495 1.167-2.021 36.068 23.68 37.304 21.538 0.726-1.256-37.807-23.489-37.304-24.36 0.189-0.328 36.844 22.336 37.305 21.538 2.162-3.744-38.074-23.365-37.305-24.696 0.408-0.708 36.364 23.169 37.305 21.538 1.78-3.082-37.314-25.013-37.305-25.028 0.602-1.043 36.204 23.449 37.306 21.539 1.426-2.469-38.277-22.652-37.306-24.334 0.827-1.432 35.8 24.148 37.307 21.539 1.703-2.95-37.358-25.025-37.307-25.112 1.692-2.931 36.707 22.58 37.307 21.539 0.651-1.126-37.706-23.657-37.307-24.346 0.655-1.136 36.708 22.579 37.308 21.54 0.381-0.66-39.208-22.004-37.309-25.294 1.147-1.985 36.047 23.728 37.31 21.541 0.51-0.886-39.182-21.175-37.309-24.419 1.663-2.881 36.339 23.22 37.309 21.541 1.68-2.91-39.014-22.407-37.309-25.36 1.789-3.099 37.115 21.88 37.31 21.542 1.329-2.302-39.225-21.259-37.311-24.575 1.363-2.361 36.657 22.674 37.311 21.541 0.561-0.971-39.509-20.965-37.31-24.772 1.468-2.543 36.966 22.138 37.311 21.542 2.182-3.78-37.436-24.203-37.311-24.419 1.085-1.879 35.736 24.27 37.312 21.542 2.181-3.778-37.53-24.146-37.312-24.523 2.07-3.586 35.416 24.827 37.312 21.542 0.338-0.584-38.936-21.551-37.312-24.365 0.327-0.565 37.054 21.991 37.313 21.543 0.757-1.311-38.217-22.884-37.313-24.448 1.528-2.647 37.196 21.746 37.314 21.543 2.072-3.59-38.621-22.393-37.314-24.656 0.525-0.911 36.824 22.392 37.314 21.543 1.804-3.125-38.368-23.501-37.314-25.325 1.552-2.688 36.811 22.416 37.315 21.544 0.282-0.489-38.759-22.596-37.315-25.095 1.472-2.551 35.411 24.842 37.315 21.543 1.566-2.712-39.304-21.596-37.316-25.04 0.848-1.468 36.857 22.341 37.317 21.545 2.217-3.84-39.24-21.458-37.316-24.79 0.017-0.03 35.985 23.851 37.317 21.545 2.006-3.476-38.275-23.686-37.317-25.345 1.509-2.615 37.019 22.063 37.317 21.546 1.173-2.03-39.559-21.043-37.317-24.925 0.695-1.206 36.509 22.946 37.318 21.546 0.627-1.086-38.975-22.189-37.318-25.06 1.169-2.024 36.692 22.633 37.319 21.547 1.099-1.904-38.137-23.042-37.319-24.458 1.705-2.955 36 23.832 37.319 21.547 0.276-0.478-39.516-20.841-37.319-24.645 0.118-0.206 35.985 23.859 37.32 21.547 1.457-2.524-39.373-21.346-37.32-24.902 1.558-2.699 36.181 23.521 37.32 21.548 1.13-1.957-38.605-22.631-37.32-24.856 0.034-0.06 37.249 21.673 37.321 21.548 0.773-1.339-37.892-23.472-37.321-24.461 1.385-2.399 36.337 23.255 37.322 21.548 0.416-0.721-39.28-21.75-37.322-25.14 1.484-2.572 36.78 22.487 37.322 21.548 1.641-2.842-38.725-21.853-37.322-24.283 0.58-1.005 35.527 24.659 37.323 21.549 0.736-1.276-39.188-21.506-37.323-24.735 1.48-2.563 36.267 23.38 37.324 21.549 0.627-1.086-38.096-23.991-37.324-25.328 2.043-3.538 37.162 21.832 37.324 21.55 2.094-3.627-37.949-23.383-37.324-24.466 0.075-0.129 36.625 22.762 37.325 21.55 1.967-3.407-39.19-21.531-37.325-24.76 1.448-2.509 36.244 23.423 37.325 21.55 0.95-1.644-38.175-23.901-37.325-25.373 0.012-0.022 36.077 23.714 37.326 21.551 0.047-0.082-39.395-21.784-37.326-25.367 0.463-0.801 36.261 23.398 37.327 21.551 0.191-0.331-37.614-24.514-37.327-25.01 1.762-3.053 35.295 25.072 37.328 21.551 2.11-3.656-37.45-24.342-37.328-24.553 0.03-0.052 35.568 24.6 37.328 21.552 1.552-2.686-39.385-20.827-37.328-24.389 0.688-1.192 37.237 21.711 37.329 21.552 1.956-3.387-37.924-24.366-37.329-25.396 0.294-0.51 35.79 24.22 37.33 21.552 0.361-0.625-38.131-23.749-37.33-25.136 1.547-2.68 35.51 24.706 37.33 21.553 1.406-2.435-39.086-21.313-37.33-24.355 1.671-2.896 36.118 23.655 37.331 21.554 0.04-0.071-38.686-23.054-37.331-25.401 1.296-2.246 36.642 22.748 37.332 21.554 1.106-1.917-37.985-23.811-37.332-24.94 0.47-0.815 35.873 24.082 37.332 21.553 0.847-1.466-38.04-23.545-37.332-24.772 0.718-1.243 36.87 22.356 37.333 21.555 0.645-1.119-38.421-23.08-37.333-24.963 1.891-3.276 35.289 25.096 37.334 21.554 0.737-1.277-38.266-22.928-37.334-24.542 1.737-3.009 39.113 24.597 39.986 23.086 1.123-1.945-40.435-25.954-39.986-26.731 1.974-3.419 44.983 29.011 46.299 26.731 1.016-1.759-48.392-26.624-46.299-30.248 1.071-1.856 51.535 31.731 52.391 30.248 2.166-3.753-52.67-32.916-52.391-33.398 0.884-1.532 54.762 38.742 57.847 33.398 0.01-0.017-60.924-30.779-57.847-36.108 0.446-0.773 62.479 36.213 62.54 36.108 1.224-2.122-64.385-36.053-62.54-39.248 1.342-2.326 65.72 43.159 67.978 39.248 1.319-2.284-69.78-38.934-67.978-42.054 1.483-2.569 68.731 49.172 72.84 42.054 1.94-3.359-74.021-43.815-72.84-45.859 0.33-0.573 78.055 48.242 79.43 45.859 3.173-5.494-82.8-42.838-79.43-48.675 2.052-3.555 80.935 54.515 84.306 48.675 3.4-5.888-87.058-47.585-84.306-52.35 0.168-0.292 86.216 60.071 90.673 52.35 3.44-5.958-95.944-46.338-90.673-55.467 0.504-0.873 93.738 59.507 96.071 55.467 0.433-0.749-96.135-58.476-96.071-58.587 5.217-9.036 98.07 64.483 101.47 58.587 2.441-4.228-104.74-56.499-101.47-62.149 1.402-2.429 36.472 22.978 37.303 21.538 0.343-0.594-38.666-22.449-37.303-24.81 1.825-3.162 35.824 24.101 37.303 21.538 1.049-1.816-39.072-21.427-37.303-24.491 1.638-2.838 36.113 23.599 37.303 21.537 1.32-2.286-38.786-22.365-37.303-24.933 0.382-0.662 35.349 24.923 37.304 21.537 0.723-1.252-39.396-21.012-37.304-24.634 0.537-0.932 36.131 23.568 37.303 21.537 1.488-2.576-38.76-21.965-37.303-24.488 0.024-0.042 35.794 24.152 37.303 21.538 0.722-1.25-39.133-21.715-37.303-24.886 0.118-0.205 35.895 23.977 37.304 21.538 1.316-2.279-37.788-23.403-37.304-24.242 0.72-1.247 37.255 21.623 37.304 21.538 1.5-2.598-38.513-22.717-37.304-24.811 0.155-0.269 35.94 23.899 37.304 21.537 2.117-3.666-37.905-23.375-37.304-24.414 1.768-3.064 37.063 21.954 37.304 21.537 0.554-0.96-37.46-24.077-37.304-24.347 1.032-1.788 37.186 21.742 37.304 21.537 1.391-2.41-39.253-20.975-37.304-24.35 1.047-1.815 35.864 24.031 37.304 21.537 1.046-1.813-38.211-23.788-37.304-25.358 0.825-1.429 36.602 22.753 37.304 21.538 1.381-2.393-38.295-23.01-37.304-24.727 0.163-0.281 35.623 24.449 37.304 21.538 1.222-2.119-38.189-23.604-37.304-25.138 1.746-3.024 35.551 24.573 37.304 21.537 1.944-3.367-38.536-22.058-37.28-24.233 1.064-1.842 36.61 22.683 37.279 21.524 1.216-2.106-38.314-22.461-36.937-24.846 1.085-1.88 35.098 24.513 36.938 21.326 1.743-3.019-37.709-21.534-36.096-24.329 0.635-1.099 34.842 23.012 36.096 20.84 1.212-2.1-35.859-21.716-34.648-23.815 0.221-0.381 33.365 22.227 34.648 20.004 1.851-3.205-33.999-20.451-32.747-22.621 0.432-0.748 31.592 20.907 32.747 18.906 0.591-1.024-30.902-20.506-30.597-21.034 0.545-0.943 29.516 19.538 30.597 17.665 1.184-2.05-29.008-17.371-27.706-19.625 0.954-1.653 27.042 17.084 27.679 15.981 1.148-1.989-24.73-16.586-24.239-17.435 0.262-0.454 22.614 15.769 23.789 13.734 0.896-1.553-20.055-13.93-19.716-14.517 0.682-1.18 17.788 11.586 18.358 10.599 0.689-1.195-10.78-9.49-10.675-9.671 0.041-0.073 5.919 3.71 6.045 3.491" stroke="#fff" stroke-linecap="round" stroke-width="1.417" fill="none"/>
</g>
<g id="g270" transform="translate(714.22 1675.3)">
<path id="path272" stroke-linejoin="round" d="m0 0c0.076-0.131 6.68 4.3 6.872 3.967 0.347-0.6-12.67-9.843-12.407-10.3 0.516-0.895 20.23 12.647 20.649 11.921 1.336-2.314-23.941-14.796-22.916-16.571 0.131-0.227 28.481 17.149 28.786 16.619 0.824-1.427-30.322-20.363-29.935-21.033 0.214-0.371 36.075 21.65 36.431 21.033 0.617-1.069-38.516-21.209-36.699-24.357 1.251-2.165 41.487 25.571 42.188 24.357 1.648-2.855-44.266-23.884-42.009-27.793 1.681-2.911 46.359 30.877 48.14 27.793 2.163-3.746-50.298-26.006-47.657-30.582 2.728-4.724 51.531 33.076 52.97 30.582 2.39-4.139-54.181-30.051-52.002-33.824 0.712-1.233 57.242 36.151 58.585 33.824 3.109-5.385-59.071-33.615-57.585-36.188 3.363-5.825 59.847 41.096 62.681 36.188 2.269-3.929-64.631-32.742-61.425-38.295 0.213-0.369 65.563 39.622 66.329 38.295 1.095-1.896-65.612-39.027-64.735-40.547 2.591-4.487 66.53 46.956 70.23 40.547 1.052-1.822-69.513-40.826-68.533-42.524 2.304-3.991 71.212 46.754 73.654 42.524 1.371-2.375-72.657-42.576-71.706-44.222 0.388-0.673 75.649 45.86 76.594 44.222 4.217-7.303-75.665-43.381-74.166-45.978 0.873-1.512 77.627 49.46 79.637 45.978 3.572-6.186-76.54-47.639-76.523-47.669 1.333-2.309 80.127 51.894 82.566 47.669 2.991-5.181-81.714-45.269-79.678-48.797 1.875-3.246 81.107 54.706 84.519 48.797 3.565-6.175-80.027-49.533-79.921-49.717 3.905-6.765 84.725 52.119 86.111 49.717 1.397-2.419-82.491-48.458-81.636-49.94 1.52-2.632 85.108 52.35 86.499 49.94 0.797-1.379-83.972-43.056-79.998-49.94 2.657-4.602 83.571 55.011 86.499 49.94 1.096-1.897-85.529-42.986-81.514-49.94 3.856-6.68 84.251 53.833 86.499 49.94 3.508-6.077-83.446-43.773-79.885-49.94 4.148-7.186 86.046 50.724 86.499 49.94 2.837-4.913-85.332-42.86-81.244-49.94 3.159-5.472 84.982 52.567 86.498 49.94 1.191-2.061-85.57-41.856-80.903-49.94 3.404-5.896 85.701 51.324 86.499 49.94 4.678-8.102-81.783-49.476-81.516-49.94 2.515-4.356 82.847 56.265 86.499 49.94 4.662-8.075-81.802-49.134-81.336-49.94 4.799-8.313 82.102 57.554 86.498 49.94 0.725-1.255-85.096-43.9-81.609-49.94 0.757-1.311 85.9 50.978 86.499 49.94 1.622-2.809-83.4-46.589-81.466-49.94 3.542-6.135 86.226 50.412 86.499 49.94 4.413-7.645-83.89-45.12-81.108-49.94 1.22-2.111 85.364 51.907 86.499 49.94 3.772-6.532-82.15-46.126-79.948-49.94 3.598-6.231 85.33 51.964 86.499 49.94 0.593-1.027-83.384-44.681-80.348-49.939 3.414-5.913 82.084 57.586 86.499 49.94 3.3-5.716-84.632-42.684-80.442-49.941 1.964-3.402 85.432 51.787 86.498 49.94 4.704-8.148-84.961-42.869-80.879-49.94 0.04-0.069 83.413 55.286 86.499 49.94 4.193-7.261-81.918-46.475-79.918-49.94 3.5-6.061 85.807 51.139 86.499 49.94 2.477-4.291-85.382-41.734-80.645-49.94 1.614-2.794 84.625 53.186 86.499 49.94 1.321-2.287-83.903-43.897-80.414-49.94 2.709-4.692 85.045 52.457 86.498 49.94 2.354-4.076-83.206-46.907-81.455-49.94 3.954-6.847 83.441 55.238 86.499 49.941 0.587-1.016-85.812-41.837-81.133-49.941 0.275-0.476 83.405 55.301 86.499 49.94 3.082-5.337-85.03-42.419-80.688-49.94 3.612-6.256 83.858 54.514 86.499 49.94 2.391-4.142-83.491-45.227-80.769-49.94 0.079-0.137 86.331 50.231 86.498 49.94 1.655-2.865-82.676-47.824-81.455-49.94 3.211-5.562 84.217 53.894 86.499 49.94 0.876-1.516-84.388-42.817-80.275-49.94 3.44-5.959 85.241 52.119 86.499 49.94 3.53-6.114-84.781-44.713-81.763-49.94 1.344-2.328 82.336 57.15 86.499 49.94 1.564-2.709-84.941-43.08-80.981-49.94 3.43-5.941 84.049 54.183 86.499 49.941 1.311-2.271-81.567-47.148-79.955-49.941 4.735-8.2 86.123 50.595 86.499 49.94 4.483-7.763-82.786-47.623-81.448-49.94 0.173-0.3 84.877 52.75 86.499 49.94 4.177-7.233-84.897-43.083-80.938-49.94 3.356-5.813 83.992 54.282 86.499 49.94 1.98-3.43-81.652-46.867-79.878-49.94 0.029-0.05 83.604 54.954 86.499 49.941 0.098-0.17-84.208-42.461-79.889-49.94 1.072-1.857 84.028 54.22 86.499 49.94 0.404-0.699-81.113-48.893-80.508-49.94 4.084-7.075 81.789 58.098 86.499 49.94 4.507-7.807-81.56-49.491-81.301-49.94 0.07-0.122 82.421 57.004 86.499 49.94 3.327-5.763-85.995-42.3-81.584-49.94 1.594-2.763 86.286 50.307 86.499 49.94 4.079-7.067-81.081-47.794-79.842-49.941 0.683-1.182 82.931 56.121 86.499 49.94 0.759-1.313-81.974-47.025-80.291-49.939 3.585-6.211 82.282 57.245 86.499 49.94 3.02-5.23-85.417-43.41-81.646-49.941 3.874-6.71 83.687 54.809 86.499 49.94 0.084-0.145-82.662-45.044-79.835-49.94 3.003-5.202 84.901 52.708 86.499 49.941 2.337-4.049-82.012-47.554-80.634-49.941 1.089-1.886 83.117 55.798 86.499 49.94 1.797-3.113-82.428-47.336-80.925-49.939 1.664-2.883 85.426 51.798 86.499 49.94 1.362-2.361-82.891-45.965-80.595-49.94 4.382-7.59 81.761 58.145 86.499 49.94 1.576-2.729-83.314-46.494-81.324-49.94 3.734-6.467 84.053 52.858 85.928 49.61 2.19-3.793-80.49-48.096-79.615-49.611 3.579-6.198 81.549 52.594 83.935 48.461 1.685-2.917-81.313-42.45-77.843-48.46 1.663-2.88 79.962 49.234 81.29 46.932 3.11-5.385-76.233-46.241-75.834-46.932 1.2-2.078 74.28 52.549 78.464 45.301 0.012-0.021-77.678-38.537-73.772-45.301 0.54-0.937 75.634 43.836 75.707 43.709 1.373-2.378-72.336-40.129-70.268-43.71 1.428-2.474 69.891 45.898 72.292 41.739 1.309-2.267-69.217-38.643-67.43-41.739 1.405-2.434 65.146 46.608 69.041 39.861 1.669-2.891-63.467-38.1-62.451-39.86 0.267-0.463 63.103 39.001 64.215 37.074 2.382-4.126-61.871-32.69-59.34-37.074 1.472-2.548 57.98 39.053 60.396 34.869 2.202-3.815-55.812-31.781-54.028-34.869 0.102-0.177 52.42 36.524 55.131 31.829 1.91-3.309-52.662-26.758-49.734-31.829 0.265-0.458 49.181 31.221 50.405 29.101 0.206-0.357-45.033-29.048-45.002-29.101 2.327-4.03 43.738 28.758 45.256 26.128 0.964-1.67-40.375-23.896-39.086-26.128 1.466-2.539 38.119 24.015 38.989 22.51 0.307-0.533-34.544-20.392-33.322-22.51 1.601-2.772 31.394 21.12 32.691 18.873 0.785-1.36-28.901-16.58-27.576-18.873 1.157-2.005 25.506 16.668 26.347 15.212 0.74-1.281-20.976-13.589-20.146-15.028 0.178-0.307 16.372 11.542 17.277 9.974" stroke="#fff" stroke-linecap="round" stroke-width="1.417" fill="none"/>
</g>
<g id="g274" transform="translate(660.77 1693.7)">
<path id="path276" stroke-linejoin="round" d="m0 0c0.095-0.165 31.946 19.853 32.557 18.796" stroke="#fff" stroke-linecap="round" stroke-width="1.417" fill="none"/>
</g>
<g id="g278" transform="translate(637.09 1723.1)">
<path id="path280" stroke-linejoin="round" d="m0 0c0.097-0.167 8.538 5.496 8.783 5.071 0.434-0.752-16.304-11.788-15.974-12.36 0.647-1.12 25.34 15.843 25.865 14.934 1.682-2.914-30.571-18.013-29.281-20.248 0.161-0.279 35.082 21.124 35.458 20.472 1.025-1.775-38.174-24.679-37.693-25.513 0.254-0.439 42.724 25.642 43.146 24.911 0.74-1.282-46.488-24.975-44.308-28.75 1.428-2.475 47.398 29.214 48.199 27.828 1.909-3.307-51.535-27.257-48.921-31.784 1.841-3.189 50.782 33.822 52.731 30.444 2.398-4.152-55.918-28.589-52.989-33.662 2.881-4.99 54.44 34.944 55.961 32.309 2.565-4.443-58.287-32.051-55.948-36.102 0.72-1.246 57.888 36.559 59.246 34.206 3.186-5.52-60.584-34.403-59.061-37.041 3.29-5.699 58.561 40.215 61.334 35.411 2.249-3.894-64.047-32.47-60.869-37.974 0.202-0.35 62.173 37.573 62.899 36.315 1.055-1.827-63.161-37.686-62.316-39.151 2.377-4.117 61.052 43.09 64.447 37.209 0.978-1.693-64.52-38.103-63.608-39.681 2.044-3.54 63.168 41.472 65.334 37.721 1.236-2.14-65.36-38.58-64.503-40.064 0.335-0.581 65.296 39.584 66.112 38.171 3.701-6.409-66.215-38.349-64.899-40.629 0.729-1.261 64.777 41.273 66.455 38.368 3.045-5.274-65.011-40.989-64.997-41.014 0.528-0.914 31.699 20.529 32.664 18.858 1.204-2.087-32.135-19.454-31.315-20.875 1.47-2.546 63.602 42.899 66.277 38.266 2.886-4.999-64.459-40.592-64.374-40.741 2.975-5.151 64.51 39.683 65.565 37.854 1.099-1.902-64.601-38.551-63.928-39.717 1.137-1.97 63.701 39.184 64.742 37.38 0.624-1.081-65.42-34.333-62.306-39.726 1.938-3.357 60.952 40.121 63.087 36.423 0.825-1.429-64.092-32.898-61.068-38.135 2.746-4.755 59.976 38.322 61.576 35.551 2.595-4.494-61.243-33.098-58.61-37.658 2.823-4.889 58.551 34.516 58.859 33.982 1.976-3.422-59.028-30.537-56.181-35.469 2.052-3.554 55.191 34.139 56.176 32.433 0.788-1.365-56.163-28.519-53.073-33.873 2.078-3.599 52.323 31.336 52.811 30.491 2.885-4.998-49.936-31.327-49.771-31.612 1.431-2.478 47.119 32 49.196 28.403 2.653-4.594-45.95-28.899-45.685-29.357 2.48-4.295 42.425 29.74 44.697 25.806 0.369-0.639-42.691-23.37-40.915-26.445 0.346-0.6 39.256 23.296 39.529 22.822 0.71-1.23-35.73-21.58-34.884-23.046 1.342-2.325 32.666 19.098 32.77 18.919 1.48-2.563-27.148-16.631-26.215-18.247 0.318-0.553 22.318 13.57 22.615 13.056" stroke="#fff" stroke-linecap="round" stroke-width="1.417" fill="none"/>
</g>
</g>
</g>
</svg>